<?xml version="1.0" encoding="utf-8"?>
<!-- Generator: Adobe Illustrator 23.0.2, SVG Export Plug-In . SVG Version: 6.00 Build 0)  -->
<svg version="1.1" id="Layer_1" xmlns="http://www.w3.org/2000/svg" xmlns:xlink="http://www.w3.org/1999/xlink" x="0px" y="0px"
	 viewBox="0 0 377 94" style="enable-background:new 0 0 377 94;" xml:space="preserve">
<style type="text/css">
	.st0{fill:#083C4D;}
</style>
<g>
	<path class="st0" d="M29.7,43.4L29.7,43.4c0.1-0.1,0.1-0.1,0.2-0.1v-0.1c0-0.1,0-0.1-0.1-0.1C29.7,43,29.7,43,29.6,43v-0.1
		c0.1-0.1,0.1-0.1,0.1-0.3c0-0.1,0-0.1,0.1-0.1h0.1c0.1,0,0.2,0,0.2-0.1c0.1-0.4,0.4-0.7,0.4-1V41c0.1-0.1,0.1-0.1,0.1-0.1
		s0-0.1-0.1-0.1c0-0.1-0.1-0.1-0.1-0.1v-0.1c0.1-0.1,0.1-0.1,0.1-0.1c0-0.1,0-0.1-0.1-0.2V40c0-0.1,0-0.1,0.1-0.1
		c0.4,0,0.5-0.1,0.6-0.3c0-0.1,0-0.3,0.1-0.3v-0.1c0-0.1-0.1-0.1-0.1-0.3c-0.1,0-0.1,0-0.1-0.1c0,0,0.1-0.1,0.1-0.2
		c0.1-0.1,0.1-0.1,0.1-0.2V38c0,0,0-0.1,0.1-0.1s0.1,0.1,0.1,0.1h0.1c0.1-0.1,0.3-0.1,0.3-0.4h-0.1c-0.2,0-0.2,0-0.3-0.2v-0.1
		c0-0.1,0-0.1,0.1-0.1h0.1c0.1,0.1,0.2,0.1,0.3,0.1c0.1,0,0.1,0,0.1-0.1l0.1-0.1C32.1,37,32,37,32,37l-0.4-0.4h-0.1
		c-0.1,0-0.4,0.3-0.4,0.4v0.2c0,0.1-0.1,0.2-0.1,0.4l-0.4,0.9c-0.1,0.4-0.3,0.6-0.3,1.1c-0.1,0.2-0.2,0.5-0.4,0.8h-0.1
		c-0.1-0.1-0.2-0.1-0.2-0.2c0.1-0.1,0.2-0.1,0.2-0.2c0-0.1-0.1-0.1-0.1-0.1c-0.1-0.1-0.1-0.1-0.1-0.1c0-0.1,0.1-0.1,0.2-0.2v-0.4
		c0-0.1,0-0.3,0.1-0.4c0-0.3,0.2-0.4,0.2-0.7c0-0.1,0.3-0.4,0.3-0.7c0.1,0,0.1-0.1,0.2-0.2c0.1,0,0.1-0.1,0.1-0.1
		c-0.1-0.1-0.1-0.1-0.1-0.2c0-0.1,0.1-0.3,0.1-0.4l0.4-0.8c0.1-0.7,0.5-1.2,0.9-1.9c0.1-0.1,0.1-0.3,0.1-0.6s0.2-0.6,0.4-0.9
		c0.1-0.1,0.1-0.1,0.1-0.2c0.3-0.8,0.7-1.7,1.1-2.4l0.4-1.2c0.1-0.2,0.2-0.4,0.4-0.6c0.1-0.1,0.1-0.4,0.1-0.5
		c0.1-0.2,0.3-0.5,0.5-0.6c0.1-0.2,0.2-0.3,0.5-0.3c0,0-0.1-0.1-0.1-0.2c-0.1-0.1-0.2-0.1-0.2-0.2c0.3-0.4,0.6-0.8,0.7-1.3l1.2-1.8
		c0-0.2,0.1-0.2,0.1-0.4c0-0.2,0.2-0.3,0.4-0.3c0.1-0.1,0.1-0.1,0.1-0.2c-0.1-0.1-0.1-0.1-0.1-0.2s0-0.1,0.1-0.3
		c0.3-0.4,0.6-0.9,0.8-1.3c0.1-0.2,0.4-0.6,0.6-0.7c0.1-0.1,0.1-0.1,0.1-0.3c0.3-0.3,0.4-0.9,0.7-1.2l0.4-0.3
		c0.1-0.1,0.1-0.4,0.1-0.5l0.4-0.2c0-0.1,0.1-0.2,0.1-0.3c0.1-0.2,0.2-0.4,0.5-0.7c0.1-0.1,0.1-0.3,0.1-0.4c0.1-0.1,0.2-0.1,0.2-0.1
		c0.3,0,0.4-0.1,0.4-0.3c0-0.4,0.2-0.6,0.4-0.7c0.3-0.2,0.5-0.4,0.6-0.7l0.3-0.2c0-0.1,0.1-0.1,0.1-0.3c0.1-0.1,0.3-0.3,0.5-0.4
		c0.3-0.1,0.4-0.3,0.5-0.5L45,12c0.1-0.1,0.1-0.1,0.3-0.1c0.3-0.1,0.4-0.1,0.4-0.4c0-0.1,0.1-0.1,0.1-0.1l0.8-0.6c0,0,0.1,0,0.2-0.1
		c0.1-0.4,0.4-0.5,0.7-0.6c0.1-0.2,0.4-0.4,0.8-0.4c0.2-0.2,0.7-0.3,1.1-0.4c0.5-0.1,1-0.2,1.6-0.2h1c0.2,0,0.4,0,0.6,0.2
		c0.4,0.2,0.8,0.2,1.2,0.4c0,0,0.1,0,0.1-0.1C54,9.4,54,9.4,54,9.4c0.1,0,0.1,0,0.2,0.1c0.4,0.6,0.8,0.9,1,1.4
		c0.1,0.3,0.1,0.6,0.3,0.9c0,0.1-0.1,0.2-0.1,0.2v1.3c0,0.1,0,0.4-0.1,0.4v0.1h-0.1C55.1,13.9,55,14,54.9,14
		c-0.1,0.1-0.1,0.1-0.1,0.1c0,0.1,0.1,0.1,0.1,0.2c0.1,0.1,0.1,0.2,0.1,0.2h0c-0.1,0.1-0.2,0.2-0.2,0.3c0,0.3,0,0.4-0.1,0.6
		c-0.1,0.3,0,0.6-0.1,0.7c-0.1,0.2-0.4,0.3-0.4,0.4L54,16.8c0,0.4-0.1,0.6-0.4,0.9l-0.3,0.6v0.1c0,0.1-0.1,0.1-0.1,0.1
		C53,18.7,53,18.7,53,18.8c0,0.2-0.1,0.4-0.4,0.5c-0.1,0.1-0.1,0.3-0.1,0.5v0.4c-0.1,0-0.1,0.1-0.1,0.1s0,0.1,0.1,0.1
		c-0.1,0-0.2,0.1-0.2,0.1h-0.1c-0.2,0-0.3,0.2-0.3,0.4c0,0.3-0.4,0.4-0.4,0.6h-0.1c-0.1,0-0.1-0.1-0.1,0v0.2c0,0.1,0,0.1-0.1,0.1H51
		c-0.1,0.3-0.1,0.4-0.3,0.6c0,0.4-0.4,0.6-0.5,0.9c0,0-0.1,0-0.1,0.1c-0.1,0.2,0,0.4-0.1,0.5s-0.2,0.2-0.2,0.4
		c-0.1,0-0.2,0.1-0.2,0.2c-0.3,0.2-0.4,0.5-0.4,0.9l-0.6,0.8h-0.1c0.1,0,0.1-0.1,0.1-0.1c-0.3,0.1-0.1,0.4-0.3,0.5
		c-0.1,0.1-0.1,0.1-0.1,0.1c-0.1,0-0.1-0.1-0.1-0.1c0-0.1,0-0.1-0.1-0.1v0.2c0,0,0.1,0,0.1,0.1c0.1,0.1,0.1,0.1,0.1,0.2
		s0,0.1-0.1,0.2c0,0.1-0.1,0.1-0.1,0.2v0.2c0,0.1,0.1,0.2,0.1,0.2h-0.5l-0.1,0.3c-0.1,0.4-0.4,0.9-0.7,1.1c-0.1,0.1-0.2,0.1-0.2,0.3
		c0.1,0.1,0.2,0.1,0.2,0.2s-0.2,0.2-0.3,0.3c-0.2,0.1-0.3,0.3-0.4,0.6c0,0,0,0.1-0.1,0.1c-0.4,0.1-0.4,0.6-0.7,0.9v0.1
		c-0.1,0.3-0.3,0.5-0.6,0.6c-0.1,0.1-0.2,0.1-0.2,0.1v0.1c0,0.1-0.1,0.1-0.2,0.3C44,33,44,33,44,33.1v0.3c-0.3,0.4-0.5,0.9-0.8,1.2
		c-0.1,0.2-0.1,0.2-0.4,0.2c0-0.1-0.1,0-0.1,0v0.1c0,0.1-0.1,0.1-0.2,0.1l-0.1,0.1h0.1c0.1,0.2,0.1,0.3,0.1,0.4L42,36.3
		c-0.1,0.2-0.2,0.4-0.2,0.6C42,37,42,37,42,37c0,0.1,0,0.1-0.1,0.1c-0.3,0.1-0.4,0.1-0.4,0.4c-0.2,0.3-0.6,0.6-0.9,0.8h-0.1
		c0,0,0,0.1,0.1,0.1c0.1,0.1,0.1,0.1,0.1,0.1c0,0.3-0.1,0.4-0.4,0.6c-0.1,0.1-0.2,0.3-0.4,0.4c-0.1,0.1-0.1,0.2-0.1,0.2
		c-0.1,0.1-0.2,0.1-0.2,0.2C39.5,40,39.5,40,39.5,40v0.1c0,0.3-0.3,0.4-0.4,0.7c-0.1,0.2-0.3,0.4-0.4,0.6c0,0.1-0.1,0.3-0.2,0.4
		c-0.2,0.2-0.4,0.4-0.4,0.8c0,0.1,0,0.1-0.1,0.2c-0.1,0-0.1,0.1-0.1,0.1c0,0.1-0.1,0.3-0.3,0.4c-0.2,0-0.4,0.2-0.4,0.4v0.1
		c0,0.1,0,0.1-0.1,0.1c-0.2,0-0.2,0-0.2,0.1v0.1c0,0.1-0.1,0.1-0.1,0.1c0,0.1-0.1,0.1-0.3,0.3c-0.4,0.3-0.4,0.6-0.6,0.9
		c-0.2,0.1-0.3,0.2-0.3,0.4V46c0,0.1-0.1,0.1-0.1,0.2c-0.1,0.1-0.2,0.1-0.2,0.4v0.1c0,0.1,0,0.1-0.1,0.1c-0.2,0.1-0.3,0.1-0.3,0.3
		c0,0.1-0.1,0.2-0.3,0.3c-0.1,0-0.1,0.1-0.1,0.1h0.1v0.1l-0.1-0.1c-0.2,0.1-0.3,0.2-0.3,0.4c0,0.4-0.1,0.5-0.3,0.7l-0.1,0.1
		c0,0.1-0.1,0.2-0.1,0.2h-0.2c-0.2,0-0.3,0.2-0.6,0.4c0,0,0,0.2,0.1,0.3c-0.1,0-0.2,0.1-0.2,0.2c0.1,0.1,0.1,0.1,0.1,0.2
		c0,0.1,0,0.1-0.1,0.1c-0.2,0-0.3,0-0.6,0.2c0,0.1,0,0.1-0.1,0.1c0,0.3,0,0.5-0.2,0.6c-0.1,0.1-0.1,0.1-0.1,0.2v0.1
		c0,0.1-0.1,0.1-0.1,0.1c-0.1,0.1-0.1,0.1-0.1,0.2c0,0.1-0.1,0.1-0.1,0.1c-0.1,0.1-0.2,0.1-0.3,0.3c-0.1,0.1-0.1,0.1-0.1,0.1H31
		c0,0.1,0,0.1-0.1,0.3l0.1-0.1v0.1h-0.1c-0.2,0.1-0.3,0.4-0.6,0.6c-0.1,0.1-0.1,0.1-0.1,0.2v0.1c-0.2,0.2-0.2,0.4-0.4,0.6
		s-0.3,0.2-0.5,0.3c-0.1,0.1-0.1,0.2-0.1,0.4c-0.1,0.3-0.1,0.5-0.1,0.8v0.7c-0.2,0.1-0.3,0.3-0.3,0.4c0,0.1,0.1,0.2,0.1,0.3V57
		c-0.1,0.3-0.1,0.6-0.1,0.9c0,0.2,0.1,0.5,0.1,0.6c-0.1,0.1-0.1,0.4-0.1,0.6v0.1c0,0.3,0.1,0.5,0.1,0.7s0,0.4-0.1,0.5
		c-0.1,0-0.1,0.1-0.1,0.1c0,0.1,0,0.1,0.1,0.2c0.1,0,0.1,0.1,0.1,0.3v0.6c0,0.1,0.1,0.4,0.1,0.6c0.1,0.1,0.1,0.4,0.3,0.6V63
		c0.1,0.6,0.2,1.2,0.4,1.8V65c0,0.5,0.5,0.9,0.6,1.4c0.1,0.2,0.1,0.3,0.1,0.4c0.2,0.1,0.4,0.3,0.4,0.5l0.2,0.2
		c0.2,0.1,0.4,0.1,0.4,0.4c0.4,0.4,0.7,0.5,1.2,0.6l1.6,0.3c0.4,0,0.6-0.1,0.8-0.2c0.2,0,0.3-0.1,0.4-0.1c0.4,0,0.7-0.1,1.2-0.3
		l1.4-0.4c0.1,0,0.1,0,0.2-0.1c0.1-0.1,0.2-0.3,0.5-0.3c0.1,0,0.1,0.1,0.1,0c0.1-0.3,0.6-0.3,0.7-0.5l0.6-0.5
		c0.5-0.1,0.8-0.5,1.4-0.6c0.1,0,0.3-0.1,0.4-0.1c0.1-0.1,0.1-0.1,0.2-0.1h0.1c0.1-0.1,0.4,0,0.5-0.1l0.2-0.4
		c0.3-0.2,0.6-0.4,0.9-0.6c0.1,0,0.2-0.1,0.3-0.1s0.1-0.1,0.2-0.1h0.2c0.2,0,0.4-0.1,0.6-0.1h0.1v0.1c-0.1,0.1-0.1,0.1-0.3,0.2
		c-0.1,0-0.1,0.1-0.1,0.1c0,0.1,0.2,0.1,0.3,0.2h0.1c0.1,0,0.1,0.1,0.1,0.1c-0.1,0.2-0.3,0.4-0.6,0.6c-0.1,0.2-0.4,0.4-0.7,0.6
		c-0.2,0.1-0.5,0.3-0.7,0.5c-0.1,0-0.2,0.1-0.4,0.2c-0.1,0-0.1,0.1-0.2,0.2l-0.3,0.4c-0.4,0-0.5,0.1-0.9,0.1c0,0-0.1,0-0.1,0.1
		c-0.1,0.2-0.3,0.4-0.6,0.4c-0.2,0.1-0.4,0.2-0.7,0.5v0.1c0,0-0.1,0-0.2-0.1c-0.1,0-0.1,0-0.1,0.1s0,0.3-0.1,0.3l-0.1-0.1
		c-0.1,0-0.1,0.1-0.2,0.1c-0.4,0.4-0.8,0.6-1.4,0.9l-0.1,0.1c-0.6,0.3-1,0.3-1.5,0.4c-0.3,0-0.4,0-0.4,0.1c-0.1,0.1-0.2,0.1-0.4,0.3
		c-0.1,0-0.2-0.1-0.3-0.1c-0.2,0.1-0.4,0.2-0.6,0.2c-0.1,0-0.4-0.1-0.6-0.1c-0.6-0.1-1.2-0.2-1.7-0.5h-0.6c-0.1-0.1-0.3-0.2-0.4-0.2
		c-0.1-0.1-0.4-0.3-0.6-0.3s-0.4-0.3-0.6-0.4s-0.4-0.3-0.5-0.5l-1-0.9c-0.3-0.4-0.8-0.6-1-1.2c-0.5-0.6-0.9-1.2-1.1-1.9
		c-0.1-0.4-0.1-0.7-0.2-1.1v-0.2c-0.2-0.1-0.2-0.2-0.2-0.4V63c0-0.1,0-0.3-0.1-0.4v-0.1c0-0.1,0-0.1,0.1-0.1
		c-0.1-0.2-0.3-0.3-0.3-0.5s-0.1-0.3-0.1-0.4s0-0.4,0.1-0.4C26,61,26,61,26,61c-0.3-0.1-0.2-0.5-0.3-0.7c0-0.3,0-0.6,0.1-0.9
		c-0.1-0.1-0.1-0.3-0.1-0.5c0,0-0.1-0.1-0.2-0.1c0,0.2-0.1,0.3-0.3,0.4L25,59.4c0,0.4-0.2,0.6-0.5,0.9c-0.1,0.1-0.3,0.1-0.4,0.2
		c-0.1,0-0.1,0.1-0.1,0.2v0.1c-0.1,0.3-0.2,0.3-0.4,0.4c-0.1,0.1-0.2,0.2-0.4,0.3c-0.1,0.1-0.1,0.1-0.1,0.2v0.1
		c0,0.1-0.1,0.2-0.1,0.2c-0.1,0.2-0.3,0.4-0.4,0.6c0,0.1-0.1,0.1-0.1,0.1c-0.2,0-0.4,0-0.4,0.2c0,0.1,0,0.2-0.1,0.2
		c-0.2,0.1-0.3,0.2-0.3,0.4s-0.1,0.2-0.3,0.2h-0.1c-0.1,0-0.2,0.1-0.3,0.3c-0.2,0.4-0.4,0.6-0.6,0.8c-0.4,0.1-0.5,0.4-0.6,0.5
		s-0.4,0.4-0.6,0.4c-0.4,0.2-0.6,0.6-1.1,0.9c-0.3,0.3-0.6,0.5-1,0.6c-0.4,0.2-0.7,0.3-1,0.4c-0.1,0-0.3,0.1-0.6,0.1
		c-0.2-0.1-0.5-0.1-0.9-0.1L14,67.5c-0.3,0-0.6-0.1-0.8-0.4c-0.4-0.5-0.9-0.9-1.4-1.3c-0.5-0.3-0.8-0.7-0.8-1.2
		c-0.1-0.4-0.2-0.8-0.2-1.2s0.1-0.8,0.2-1.2l0.1-0.9c0.1-0.4,0.1-0.9,0.2-1.1V60c0.1-0.1,0.1-0.2,0.1-0.4c0.3-0.1,0.2-0.6,0.5-0.9
		c0-0.3,0.2-0.6,0.4-0.9c0-0.1-0.1-0.1,0-0.1c0.3-0.3,0.1-0.6,0.3-0.9c0-0.1,0.1-0.3,0.1-0.4c0.1-0.2,0.2-0.4,0.4-0.5
		c0-0.2,0.1-0.3,0.1-0.4c0.1-0.1,0.1-0.1,0.1-0.3c0.2-0.1,0.2-0.3,0.3-0.4c0.1-0.1,0.2-0.3,0.3-0.5c0.1-0.1,0.2-0.4,0.4-0.6
		c0.1,0,0.1-0.1,0.1-0.2c0.3-0.4,0.6-0.8,0.8-1c0.1-0.1,0.3-0.3,0.3-0.4c0.2-0.2,0.4-0.4,0.5-0.6c0.3-0.1,0.5-0.3,0.6-0.5
		c0.1-0.1,0.1-0.2,0.3-0.2l0.4-0.3c0.6-0.4,1.3-0.5,2-0.7H20c0.4,0,0.8,0.1,1.2,0.3c0.2,0.1,0.5,0.3,0.6,0.6c0,0.1,0,0.1,0.1,0.1
		c0.1,0.1,0.1,0.1,0.1,0.3c-0.1,0.1-0.1,0.1-0.1,0.2c0,0.1,0.1,0.1,0.1,0.1c0,0.1-0.2,0.3-0.4,0.4c-0.3,0-0.4,0.1-0.6,0.1
		c-0.4,0-0.6,0.1-1.1,0.4c-0.1,0.1-0.3,0.2-0.6,0.3c0,0.1-0.1,0.1-0.2,0.2c-0.3,0-0.4,0.1-0.6,0.3c-0.4,0.4-0.6,0.7-0.8,1.2
		c-0.3,0.4-0.5,0.6-0.7,1.1c-0.4,0.3-0.6,0.8-0.9,1.2c-0.5,0.8-0.9,1.7-1.3,2.5c-0.1,0.5-0.3,1.2-0.5,1.7c-0.1,0.6-0.3,1.2-0.4,1.8
		c0,0.4-0.1,0.8-0.1,1.2V64c0,0.3,0.1,0.6,0.1,0.9c0,0.1,0.1,0.2,0.2,0.3c0.2,0.1,0.4,0.1,0.5,0.1s0.3,0,0.4-0.1
		c0.4-0.2,0.9-0.3,1.3-0.8c0.4-0.2,0.8-0.6,1.2-0.9c0.6-0.6,1.2-1.1,1.9-1.7c0.4-0.4,0.6-0.9,1.2-1.1c0.2-0.2,0.3-0.4,0.5-0.6
		c0.7-0.7,1.4-1.5,1.9-2.2c0.5-0.5,1-1.2,1.6-1.7c0.1-0.2,0.3-0.6,0.4-0.7c0.3-0.1,0.4-0.4,0.6-0.6c0.4-0.3,0.6-0.9,0.6-1.5v-0.2
		l0.2-1.3v-0.1c0-0.1,0.1-0.2,0.2-0.3v-0.6c0-0.2,0-0.4,0.1-0.6c0.2-0.3,0.2-0.6,0.2-1.1c0-0.4,0.1-0.7,0.4-1.2
		c0.1-0.1,0.1-0.4,0.1-0.6c0.1-0.5,0.2-0.9,0.6-1.4v-0.5c0.2-0.6,0.4-1.3,0.6-1.9c0.1-0.2,0.2-0.4,0.4-0.4c0.1,0,0.2,0.1,0.2,0.1
		v0.2c-0.1,0-0.1,0.1-0.1,0.1c0,0.1,0,0.1,0.1,0.1c0.3,0.1,0.3,0.4,0.3,0.5s-0.1,0.4-0.1,0.5c-0.1,0-0.1,0.1-0.2,0.1h0.3
		c0.1-0.1,0.1-0.1,0.1-0.1v-0.1c0-0.2,0.2-0.4,0.2-0.6v0C29.6,43.8,29.6,43.7,29.7,43.4l-0.2,0.1v-0.1H29.7z M26.5,59.1L26.5,59.1
		c0.1,0.1,0.1,0.1,0.1,0.1c0,0.1,0.1,0.1,0.1,0.2c0-0.1,0-0.1,0.1-0.1V59c0-0.1-0.1-0.1-0.1-0.1h-0.1C26.5,59.1,26.5,59.1,26.5,59.1
		z M26.7,52.9l-0.1-0.1V53l0.1,0.1V52.9z M26.7,58.1C26.6,58.1,26.6,58.1,26.7,58.1l-0.1,0.2h0.1V58.1z M26.8,57.5
		C26.7,57.5,26.7,57.5,26.8,57.5l-0.1,0.1c0,0.1,0,0.1,0.1,0.2c0.1-0.1,0.2-0.2,0.2-0.3C27,57.6,26.8,57.5,26.8,57.5z M26.8,60.7
		L26.8,60.7c0.2-0.1,0.2-0.2,0.2-0.3l-0.1-0.1c0-0.1-0.1-0.1-0.1-0.1v0.1C26.7,60.4,26.7,60.5,26.8,60.7z M27,61.2
		c0,0-0.1-0.1-0.3-0.1l-0.1,0.1v0.2c0.1,0.1,0.1,0.1,0.3,0.1c0.1,0,0.1,0,0.1-0.1V61.2z M27,62.2c0-0.2-0.1-0.4-0.2-0.6h-0.1v0.3
		c0,0.1,0.1,0.2,0.1,0.3H27L27,62.2z M28.6,47.8c0.1-0.4,0.1-0.8,0.1-1.4c-0.1,0.1-0.1,0.2-0.1,0.2c0,0.1,0,0.1-0.1,0.1l-0.1-0.1
		h-0.3l-0.4,0.5c0,0,0.1,0,0.1,0.1v0.1c0,0.1,0,0.1-0.1,0.1s-0.1,0-0.1,0.1s0.1,0.1,0.1,0.2c0.1,0,0.1,0.1,0.1,0.1
		C28,48,28,48.1,28,48.3c0,0.1,0,0.2-0.1,0.3s-0.2,0.2-0.4,0.4c-0.1,0.1-0.1,0.2-0.1,0.2v0.7c0,0.1,0,0.2,0.1,0.3
		c-0.1,0.1-0.1,0.5-0.1,0.7c0,0.3-0.1,0.6-0.2,0.8C27,51.8,27,51.9,27,52s0,0.1,0.1,0.2v0.3C27,52.6,27,52.7,27,52.7v0.1
		c0,0,0,0.1,0.1,0.1s0.1-0.1,0.1-0.1l0.2-0.9c0-0.3,0.1-0.6,0.3-0.9c0.1-0.5,0.1-1.1,0.1-1.5c0-0.1,0.1-0.1,0.1-0.2
		c0-0.1-0.1-0.1-0.1-0.1c-0.1-0.1-0.1-0.1-0.1-0.1H28c0.1-0.4,0.1-0.6,0.4-0.8c0.1,0,0.1,0,0.1-0.1v-0.4H28.6z M28.3,47.1L28.3,47.1
		L28,47.2v-0.1c0-0.1,0.1-0.1,0.1-0.1C28.3,47,28.3,47,28.3,47.1z M28.8,45.7L28.8,45.7c0.1,0,0.1-0.1,0.1-0.3V45
		c0,0.1-0.1,0.1-0.1,0.1c0,0.1,0,0.2-0.1,0.2h-0.4c-0.1,0-0.1,0-0.1,0.1v0.2c0,0.1,0,0.4,0.2,0.5l0.1,0.1
		C28.7,46.1,28.7,45.9,28.8,45.7C28.8,45.9,28.8,45.7,28.8,45.7L28.8,45.7z M28.6,45.7L28.6,45.7L28.6,45.7L28.6,45.7z M29.9,40.9
		c-0.1,0.2-0.2,0.4-0.2,0.5h-0.1l-0.2,0.4v0.1c0,0,0,0.1,0.1,0.1c0.1,0.1,0.1,0.3,0.1,0.4c-0.1,0.2-0.1,0.5-0.4,0.7
		c0,0.1-0.2-0.1-0.3-0.1c-0.1-0.1-0.1-0.1-0.1-0.3L29,42c0-0.1,0.1-0.2,0.1-0.4c0.1-0.2,0.1-0.2,0.4-0.2c-0.1-0.1-0.2-0.2-0.2-0.4
		c0.1-0.1,0.1-0.2,0.2-0.3c0-0.1,0.1,0.1,0.2,0.1L29.9,40.9z M29,44.4h-0.2v0.1c0,0,0,0.1,0.1,0.1S29,44.5,29,44.4L29,44.4z
		 M29,44.3L29,44.3L29,44.3L29,44.3z M53.5,11.5c-0.1-0.1-0.2-0.1-0.2-0.2L53,10.9c-0.1-0.2-0.2-0.2-0.4-0.3l-0.4,0.2
		c-0.1,0.1-0.2,0.1-0.3,0.1c-0.3,0-0.4,0.1-0.5,0.2c-0.6,0.1-1.2,0.6-1.5,0.9c-0.1,0-0.2,0-0.2,0.1c-0.4,0.3-0.9,0.6-1.3,1
		c-0.1,0-0.1,0.1-0.1,0.1c-0.4,0.5-0.9,0.9-1.4,1.4c-0.2,0.1-0.5,0.3-0.7,0.6c-0.1,0.3-0.5,0.5-0.7,0.8c-0.1,0.4-0.3,0.6-0.6,0.6
		c-0.1,0.1-0.2,0.3-0.4,0.4c0,0.4-0.4,0.6-0.4,1c0,0.1-0.1,0.1-0.1,0.2L43.4,19c-0.2,0.4-0.4,0.6-0.6,0.9c0,0.1-0.1,0.3-0.4,0.4
		c-0.1,0.1-0.2,0.4-0.3,0.6l-0.6,0.9c-0.1,0.3-0.2,0.4-0.5,0.4h-0.1c0.1,0,0.1,0.1,0.1,0.1v0.2c-0.1,0.2-0.2,0.3-0.3,0.5
		c-0.1,0.1-0.1,0.1-0.1,0.1c0,0.4-0.2,0.6-0.4,0.9c-0.1,0.2-0.1,0.4-0.3,0.6c-0.2,0.4-0.4,0.8-0.7,1.1c-0.1,0.1-0.1,0.2-0.1,0.3
		c0,0.3-0.2,0.5-0.3,0.6s-0.2,0.2-0.2,0.3V27c0,0.1-0.1,0.2-0.2,0.4C38.1,27.7,38,27.8,38,28c0,0.3-0.1,0.4-0.3,0.6L37.4,29
		c-0.1,0.4-0.2,0.9-0.4,1.3c-0.3,0.3-0.2,0.6-0.6,0.7c-0.1,0-0.1,0.1-0.1,0.1s0,0.1,0.1,0.1c0,0.3-0.3,0.5-0.4,0.8
		c-0.1,0.4-0.3,0.8-0.4,1.2c-0.1,0.1-0.2,0.1-0.3,0.1h-0.1c-0.2,0-0.2,0-0.2,0.1l0,0v0.1h0.1v0.1c0,0,0-0.1,0.1-0.1
		c0.2,0.1,0.2,0.2,0.2,0.3c-0.1,0-0.1,0.1-0.2,0.2c-0.1,0.2-0.1,0.4-0.4,0.6l-0.1,0.1c0,0.2,0.1,0.3,0,0.3c-0.1,0.1-0.1,0.1-0.1,0.2
		v0.3c-0.1,0.3-0.2,0.6-0.3,0.9c-0.2,0.3-0.4,0.5-0.4,0.9c0,0-0.1,0-0.1,0.1c-0.1,0.1-0.2,0.1-0.2,0.4v0.1c0,0.2-0.2,0.4-0.2,0.6
		c-0.1,0.1-0.2,0.2-0.2,0.3s0,0.1,0.1,0.1c0,0.1,0,0.4-0.1,0.4s-0.3,0.1-0.3,0.3v0.1c0,0.1,0,0.2-0.2,0.3v0c0.1,0.1,0.1,0.2,0.1,0.3
		s-0.1,0.3-0.1,0.4c-0.1,0.1-0.1,0.3-0.4,0.3c0,0.1-0.1,0.2-0.1,0.3v0.6c0,0.1,0,0.2-0.1,0.3c-0.2,0.2-0.2,0.4-0.4,0.6
		c-0.1,0,0,0.1,0.1,0.1c0.1,0.1,0.1,0.1,0.1,0.2c-0.1,0.3-0.1,0.4-0.4,0.6c-0.1,0.1-0.1,0.1-0.1,0.3c0,0.1,0,0.1,0.1,0.3v0.3
		c-0.1,0-0.2,0.2-0.2,0.3V45c0,0.1-0.1,0.2-0.3,0.4c0,0.1-0.1,0.1-0.1,0.3c0,0.1,0,0.1,0.1,0.2l0.1,0.1c-0.3,0.1-0.1,0.4-0.3,0.6
		c-0.1,0.1-0.1,0.1-0.1,0.2c0,0.1,0,0.2,0.1,0.3c0,0.2,0,0.4-0.2,0.4c-0.1,0.1-0.1,0.1-0.1,0.2c0,0.1,0,0.1,0.1,0.1V48
		c0,0.1,0,0.1-0.1,0.3s-0.3,0.4-0.3,0.8c0,0.1-0.1,0.1-0.1,0.1h0.2c0.3-0.1,0.4-0.3,0.5-0.5c0.1-0.1,0.2-0.3,0.3-0.4l3-3.9
		c0.1-0.2,0.4-0.4,0.4-0.7c0.1-0.1,0.2-0.1,0.2-0.2c0.3-0.2,0.6-0.5,0.6-0.9c0.4-0.6,0.8-1.2,1.3-1.7l0.6-0.9c0.1,0,0.1-0.1,0.1-0.1
		c0.2-0.4,0.5-0.8,0.8-1.2c0.1-0.3,0.3-0.6,0.6-0.9c0.1-0.4,0.4-0.6,0.6-0.9c0.1,0,0.3-0.1,0.3-0.4l0.3-0.4c0.1-0.1,0.3-0.3,0.3-0.4
		c0.2-0.3,0.5-0.6,0.6-1l0.9-1.2l0.4-0.8c0.1-0.1,0.2-0.3,0.3-0.5c0.4-0.3,0.6-0.7,1-1.3c0-0.2,0.3-0.4,0.4-0.6c0.1,0,0.2,0,0.3-0.1
		C44,30.1,44,30,44,30c0-0.2,0.1-0.3,0.1-0.4c0.1-0.3,0.1-0.5,0.3-0.6c0.4-0.3,0.6-0.6,0.7-1c0.1-0.3,0.3-0.6,0.4-0.8
		c0.2-0.4,0.5-0.6,0.6-1c0.1-0.3,0.3-0.6,0.6-0.7c0.1-0.1,0.1-0.1,0.1-0.2c0-0.4,0.1-0.8,0.4-1.1c0.1-0.3,0.4-0.5,0.5-0.8
		c0-0.1,0.1-0.1,0.1-0.1c0.2-0.3,0.5-0.7,0.8-0.9v-0.3c0.1-0.2,0.2-0.3,0.3-0.5l0.4-0.6c0-0.1,0.2-0.2,0.3-0.4c0-0.1,0-0.2,0.1-0.4
		v-0.1c0-0.1,0.1-0.2,0.3-0.3c0.1,0,0.1-0.1,0.1-0.2l0.1-0.4c0.3-0.4,0.4-0.8,0.6-1.1c0.1-0.2,0.4-0.4,0.4-0.6s0.1-0.4,0.2-0.6
		c0.1-0.2,0.1-0.4,0.4-0.4c0.2-0.1,0.3-0.1,0.3-0.2s0-0.1-0.1-0.3v-0.2c0.1-0.2,0.2-0.4,0.3-0.5c0-0.1,0.1-0.1,0.1-0.1v-0.1
		c0-0.3,0.3-0.5,0.3-0.9c0.1-0.1,0.1-0.2,0.1-0.2c0-0.6,0.2-0.9,0.4-1.4v-0.5c0-0.1-0.1-0.1-0.1-0.2c0-0.1,0.1-0.1,0.1-0.2v-0.2
		H53.5z M30.2,40.6c0-0.1,0.1-0.1,0.1-0.1c0.1,0,0.1,0.1,0.2,0.1v0.2C30.4,40.7,30.2,40.6,30.2,40.6z M30.4,44.3v0.2
		c0.1,0,0.2-0.1,0.2-0.2c0,0,0-0.1-0.1-0.1C30.5,44.2,30.4,44.2,30.4,44.3z M31,42.4c-0.1,0-0.1,0.1-0.1,0.1L31,42.4
		c0.1,0.1,0.2,0.1,0.2,0C31.1,42.4,31.1,42.4,31,42.4L31,42.4z M31.9,36.5L31.9,36.5c0,0.1,0,0.1,0.1,0.1c0.1,0.1,0.1,0.2,0.1,0.2
		c0.1,0,0.1-0.1,0.1-0.1v-0.1c0-0.1,0.1-0.2,0.3-0.4c0,0,0-0.1-0.1-0.1c-0.2,0-0.2-0.1-0.2-0.1v-0.3c0-0.3,0.2-0.7,0.4-0.9
		c0.1,0,0-0.1,0-0.1l0.1-0.1c0.1,0,0.1,0.1,0.1,0v-0.1c0-0.2,0-0.4,0.1-0.6l0.4-0.9v-0.1c0-0.2-0.1-0.3-0.1-0.3
		c-0.1,0.1-0.1,0.1-0.1,0.1H33c-0.2,0.1-0.1,0.4-0.4,0.4c-0.1,0.1-0.1,0.1-0.1,0.2v0.4c-0.1,0.1-0.1,0.3-0.2,0.4
		c-0.1,0.1-0.2,0.3-0.2,0.4c-0.1,0.4-0.2,0.6-0.3,0.9c-0.1,0.1-0.2,0.1-0.2,0.2c0,0.1,0,0.1,0.1,0.2c0,0.1-0.2,0.1-0.2,0.3v0.1
		c0,0,0,0.2,0.1,0.3h0.1C31.9,36.5,31.9,36.5,31.9,36.5z M31.9,39.5c0.1,0.2,0.3,0.2,0.5,0.4c0,0,0.1,0,0.1-0.1v-0.1
		c-0.1-0.1-0.3-0.3-0.4-0.4H32C31.9,39.3,31.9,39.4,31.9,39.5z M33,49.6C33,49.6,33.1,49.6,33,49.6L33,49.6L33,49.6z M33.4,31.8
		c0,0.1-0.2,0.4-0.2,0.5l0.1,0.1h0.1v-0.2c0.1-0.1,0.2-0.3,0.4-0.4c0,0,0.1,0,0-0.1c0-0.3,0.2-0.4,0.2-0.6c0.1-0.3,0.1-0.5,0.4-0.7
		c0.1-0.1,0.1-0.2,0.1-0.4c0-0.1,0-0.2-0.1-0.4c-0.3,0.1-0.3,0.5-0.5,0.7c0,0.4-0.2,0.6-0.4,0.9c0,0.1-0.1,0.1-0.1,0.3l-0.1,0.1
		C33.3,31.8,33.4,31.8,33.4,31.8z M33.4,36.3L33.4,36.3C33.3,36.3,33.3,36.4,33.4,36.3c-0.1,0.1-0.1,0.2,0,0.2h0.1
		C33.5,36.5,33.4,36.5,33.4,36.3z M34.5,29.7L34.5,29.7c0.1,0,0.1,0,0.1-0.1s-0.1-0.1-0.1-0.1S34.5,29.6,34.5,29.7z M34.7,29v0.1
		c0,0.1-0.1,0.2-0.1,0.3c0.2,0,0.4-0.1,0.4-0.4v-0.1c0-0.1,0.1-0.2,0.1-0.4v-0.1H35C34.8,28.6,34.7,28.8,34.7,29z M35.1,28
		c0,0.1,0.1,0.1,0.1,0.1h0.2v-0.2L35.1,28L35.1,28z M35.5,27.6L35.5,27.6c0.2-0.3,0.3-0.4,0.4-0.6H36c0-0.1,0-0.1,0-0.2
		s0.1-0.1,0.1-0.2c0.1-0.1,0.1-0.1,0.1-0.1c-0.1,0-0.1,0-0.1-0.1c-0.1,0-0.1,0.1-0.2,0.1c0,0.3-0.2,0.6-0.3,0.9L35.5,27.6z
		 M36.5,25.7l0.4-0.4c0,0,0-0.1-0.1-0.1c0,0,0-0.1-0.1-0.2h-0.1c-0.1,0.3-0.2,0.4-0.3,0.6C36.4,25.7,36.5,25.7,36.5,25.7z
		 M37.4,23.8v0.3h0.1l0.3-0.3v-0.1c-0.1,0-0.1-0.1-0.1-0.1C37.5,23.6,37.4,23.6,37.4,23.8z"/>
	<path class="st0" d="M50.9,61.2c-0.4,1.5-1.4,3-2.3,4.6c-0.4,0.5-0.6,1.1-0.6,1.7c-0.1,0.6-0.5,1.2-0.9,1.8c0,0.1-0.4,0.1-0.6,0.1
		c-0.8,0-1.7-0.6-1.8-1.3c0-0.1,0-0.3-0.1-0.3c-0.6-0.2-0.8-0.6-0.8-1c0-0.2,0.1-0.4,0.1-0.6c0-2.2,0.6-4.2,1.3-6.3l1.4-4.7
		c0.6-1.8,1.1-3.5,1.6-5c0.4-1,0.6-2.1,0.8-3.2c0.3-1.1,0.6-2.2,0.9-3.3c0.1-0.2,0.2-0.5,0.4-0.5c0.4,0,0.5,0.1,0.6,0.6
		c0.6,0.6,0.6,1.4,0.6,2.2v0.5c-0.2,1.4-0.4,2.7-0.7,4.1c-0.1,1.1-0.4,2.2-0.6,3.3c-0.1,0.5-0.6,1.2-0.6,1.7V56
		c0,0.8-0.2,1.5-0.4,2.2v0.4c0.2-0.1,0.4-0.2,0.6-0.4c0.9-0.7,1.4-1.6,2-2.4c0.1-0.2,0.4-0.4,0.5-0.5c1.2-1.1,1.9-2.2,3.1-3.1
		c0.9-0.6,1.8-1.2,2.7-1.7c0.6-0.4,1.3-0.6,2-0.6s1.4,0.2,2,0.5c0.3,0.1,0.5,0.4,0.5,0.5s-0.1,0.3-0.4,0.5c-0.1,0.1-0.1,0.1-0.2,0.1
		c-0.1,0.3-0.1,0.6-0.4,0.9c-0.1,0.1-0.3,0.4-0.4,0.4v-0.4c0-0.2,0-0.4-0.2-0.6c-0.1-0.1-0.1-0.1-0.3-0.1s-0.4,0-0.5,0.1
		s-0.1,0.4-0.2,0.4c-0.5,0.1-0.7,0.3-0.8,0.8c0,0-0.3,0.1-0.4,0.2c-0.7,0.4-1.3,1.2-1.9,1.8c-0.1,0.1-0.2,0.2-0.5,0.3
		c-0.6,0.1-0.8,1-1.2,1.4c-0.6,0.6-1.1,1.2-1.7,1.8c-0.2,0.3-0.6,0.6-0.9,0.7c-0.1,0.1-0.1,0.1-0.1,0.2
		C52.1,59.9,51.5,60.4,50.9,61.2C50.9,61.1,50.9,61.1,50.9,61.2z M48.9,59.3h0.3v-0.4L48.9,59.3z M49.4,60.6c0.1,0,0.2-0.1,0.2-0.1
		l0.4-0.9c-0.1,0.4-0.5,0.6-0.6,0.8C49.3,60.5,49.4,60.6,49.4,60.6z M50.8,58.6c-0.4,0.1-0.6,0.4-0.6,0.9
		C50.5,59.1,50.7,58.8,50.8,58.6z M50.8,58.6c0.1-0.1,0.4-0.1,0.5-0.3c0.5-0.5,0.7-0.9,1.2-1.4c0.3-0.3,0.4-0.6,0.7-0.9
		c-0.6,0.5-1.2,1.1-1.7,1.7C51.3,57.8,51.1,58.2,50.8,58.6z M53.6,55.4c-0.2,0.1-0.3,0.4-0.4,0.6C53.5,55.8,53.6,55.7,53.6,55.4z
		 M54.2,54.9L54.2,54.9l-0.3,0.3L54.2,54.9z"/>
	<path class="st0" d="M63.5,68.6L63.5,68.6c-0.1-0.3-0.2-0.4-0.2-0.7c0,0,0-0.1,0.1-0.2c0-0.1,0.1-0.1,0.1-0.1
		c0.1,0.1,0.3,0.1,0.4,0.1h0.3c0.1,0.1,0.3,0.1,0.4,0.1c0.1,0.2,0.6,0.3,0.9,0.4c0.1,0,0.4,0.1,0.4,0.2c0.2,0.2,0.6,0.4,0.9,0.6
		c0.1,0.1,0.1,0.2,0.1,0.3c0,0.1,0,0.2-0.1,0.3l-0.1,0.1c-0.1,0.1-0.1,0.2-0.1,0.4c0.1,0.1,0.1,0.1,0.1,0.4c0,0.1,0,0.3-0.2,0.3
		c-0.1,0-0.4,0-0.6,0.1c-0.1,0-0.1,0.1-0.1,0.1c-0.1,0-0.2-0.1-0.3-0.1c-0.1-0.1-1-0.1-1.2-0.2l-0.2-0.2v-0.1c0-0.1-0.2-0.2-0.4-0.3
		c-0.1-0.1-0.2-0.1-0.2-0.2c-0.1-0.2-0.4-0.4-0.6-0.6C62.9,68.9,63.5,68.7,63.5,68.6z"/>
	<path class="st0" d="M124.2,50.6c-1,0-1.9,0.1-2.9,0.2l-0.1,0.1c-0.1-0.1-0.2-0.1-0.4-0.1c-0.3,0-0.6,0.1-0.9,0.1h-0.1
		c-0.6,0-1.2,0.3-1.7,0.4l-0.7,0.2c-0.6,0.3-1.1,0.4-1.7,0.6c-0.1,0-0.3,0.1-0.4,0.1c-0.3,0.1-0.6,0.1-0.7,0.4
		c-0.1,0.1-0.1,0.1-0.2,0.1c-0.4,0-0.7,0.1-1,0.3c-0.4,0.1-0.8,0.3-1.2,0.5c-0.2,0.1-0.4,0.1-0.6,0.4c-0.2,0-0.3,0.1-0.4,0.1
		c-0.8,0.1-1.4,0.6-2.1,0.9c-0.1,0-0.1,0.1-0.2,0.1s-0.3-0.1-0.4-0.1c-0.2-0.1-0.3-0.2-0.6-0.2c-0.1,0-0.2,0-0.4,0.1
		c-0.1,0.1-0.1,0.1-0.3,0.1c-0.4-0.1-1-0.2-1.5-0.3c-0.1,0-0.2-0.1-0.2-0.2c-0.1-0.1-0.3-0.1-0.4-0.1h-0.2v-0.6
		c0-0.3-0.1-0.4-0.6-0.4h-0.1c-0.1,0-0.1-0.1-0.1-0.1v-0.1c0.1-0.1,0.1-0.1,0.1-0.1v-0.1c-0.1-0.1-0.2-0.3-0.2-0.4
		c0-0.1,0-0.1,0.1-0.1c0.2-0.3,0.5-0.5,0.9-0.7c0.1-0.2,0.5-0.4,0.6-0.6l0.5-0.3c0.4-0.1,0.9-0.5,1.3-0.9l0.8-0.6
		c0.1-0.1,0.3-0.3,0.4-0.3c0.2,0,0.2-0.1,0.3-0.1c0.5-0.6,1.3-0.9,1.9-1.4c0.1-0.1,0.1-0.1,0.1-0.1c0.1,0,0.4,0,0.6-0.1
		c0.1-0.1,0.1-0.2,0.4-0.4c0.6-0.4,1.2-0.8,1.7-1.2l1.3-0.9h0.1c0.3-0.3,0.7-0.6,1.2-0.9c0.1-0.1,0.4-0.3,0.8-0.6l1.2-0.9
		c0.4-0.3,1-0.5,1.4-0.9c0.1-0.2,0.4-0.4,0.6-0.5c0.3-0.1,0.6-0.4,0.9-0.6c0.4-0.4,0.7-0.9,1.4-1.2c0.4-0.1,0.6-0.4,1-0.7
		c0.1-0.1,0.3-0.4,0.6-0.5l0.6-0.6c0.4-0.1,0.6-0.4,0.9-0.6l0.3-0.2c0.2-0.4,0.7-0.6,1.1-1c0.2-0.2,0.6-0.4,0.7-0.7
		c0.3-0.4,0.8-0.6,0.9-1c0.6-0.3,0.8-0.9,1.3-1.1l0.2-0.1c0.4-0.5,0.6-0.9,1.1-1.2l0.2-0.4c0.2-0.4,0.5-0.9,0.9-1.3l1.5-2.3
		c0.2-0.4,0.6-0.8,0.7-1.3c0.1-0.3,0.2-0.6,0.4-0.8c0.4-0.8,0.7-1.7,0.9-2.5c0.1-0.6,0.1-1.2,0.1-1.9v-0.1c0-0.4-0.1-0.7-0.1-1.1
		c0-0.1-0.1-0.1-0.1-0.1c-0.4-0.5-0.6-1.2-1.1-1.7c-0.6-0.4-1.1-0.8-1.7-1.1c-0.6-0.1-0.9-0.4-1.4-0.4c-0.1,0-0.2-0.1-0.4-0.1
		c-0.4,0-0.7-0.1-1-0.1c-0.4,0-0.9-0.1-1.3-0.1c0,0-0.1-0.1-0.2-0.1c-0.1,0-0.1,0.1-0.1,0.1c-0.4,0-0.9,0-1.3-0.1
		c-0.2-0.1-0.3-0.1-0.4-0.1c-0.3,0.1-0.4,0.1-0.6,0.1s-0.4,0-0.6,0.1h-1.2c-0.4,0.3-0.9,0.3-1.4,0.3c-0.6,0.1-1.2,0.1-1.6,0.4
		c-1.2,0.4-2.2,0.5-3.2,0.9c-0.5,0-0.9,0.3-1.4,0.3c-0.8,0.5-1.8,0.6-2.6,1.1c-0.6,0.2-1,0.6-1.6,0.6c-0.3,0-0.4,0.1-0.4,0.1
		c-0.3,0.2-0.6,0.4-0.9,0.5l-1.7,0.6l-0.9,0.5c-0.1,0.1-0.1,0.1-0.4,0.1l-0.6,0.3c-0.1,0.1-0.4,0.3-0.8,0.4
		c-0.3,0.1-0.7,0.3-1.1,0.6c-0.1,0.1-0.4,0.2-0.5,0.3c-0.7,0.3-1.4,0.6-2.1,1.2c-0.3,0.1-0.4,0.3-0.6,0.4c-0.3,0-0.5,0-0.6,0.2
		c0,0.1-0.1,0.2-0.4,0.3c-0.1,0.1-0.3,0.2-0.5,0.3c-0.4,0.3-1,0.4-1.2,0.6c-0.4,0.4-0.8,0.6-1.3,0.9l-2.1,1.4
		c-0.6,0.4-1.3,0.9-1.9,1.2L93.7,30c-0.4,0.3-0.8,0.5-1.2,0.8c-0.1,0-0.3,0.2-0.4,0.4c-0.2,0.2-0.4,0.4-0.6,0.5
		c-0.6,0.4-1.2,0.9-1.9,1.4c-0.6,0.4-1.2,0.9-1.8,1.4c-0.3,0.2-0.4,0.5-0.8,0.8l-0.9,1c-0.1,0.2-0.3,0.2-0.4,0.4
		c-0.3,0.3-0.6,0.5-0.8,1L84.6,38c-0.4,0.3-0.5,0.6-0.8,1s-0.6,0.9-0.9,1.2l-0.2,0.3c-0.1,0.3-0.3,0.7-0.5,1.1
		c-0.1,0.1-0.1,0.2-0.1,0.3s0,0.1,0.1,0.2c0.3,0.1,0.3,0.1,0.4,0.1c0.6,0,0.9,0.5,1.5,0.5c0.5,0.1,0.9,0.3,1.3,0.6
		c0.1,0.1,0.2,0.3,0.2,0.4c0,0.2-0.1,0.4-0.2,0.5c0,0.1-0.2,0.1-0.4,0.3c-0.1,0.2-0.4,0.3-0.6,0.3c-0.1,0-0.3,0-0.3,0.1
		c0,0.1-0.3,0.1-0.4,0.1s-0.3,0-0.4-0.1c-0.1,0-0.2-0.1-0.3-0.1c-0.1,0-0.2,0.1-0.3,0.1c0,0.1-0.1,0.1-0.3,0.1c-0.1,0-0.3,0-0.4-0.1
		h-0.5c-0.1,0-0.1,0-0.2-0.1l-0.7-0.4c-0.4-0.1-0.8-0.4-1-0.6c-0.1-0.1-0.2-0.3-0.2-0.4v-0.1c0-0.2-0.1-0.3-0.3-0.4
		s-0.2-0.4-0.4-0.6c0-0.1,0-0.2,0.1-0.3l0.6-1.4c0.1-0.2,0.4-0.3,0.4-0.4v-0.4c0-0.1,0-0.2,0.1-0.4l0.4-0.8c0.1-0.4,0.5-0.7,0.6-1.2
		c0.1-0.4,0.4-0.6,0.7-0.9c0.1-0.1,0.4-0.4,0.6-0.9c0.1-0.4,0.5-0.6,0.8-0.9c0.6-0.5,1.2-0.9,1.7-1.6c0.4-0.4,0.9-0.9,1.4-1.2
		l0.6-0.5c0.6-0.8,1.4-1.3,2.2-1.9l0.7-0.5c0.3-0.2,0.4-0.5,0.8-0.5c0.1,0,0.1-0.1,0.3-0.3l1.1-0.9c0.4-0.1,0.4-0.4,0.6-0.5
		s0.4-0.1,0.4-0.1c0.4-0.3,0.8-0.6,1.2-0.7c0.2-0.1,0.4-0.1,0.6-0.5c0-0.1,0.1-0.1,0.1-0.1c0.2,0,0.4-0.2,0.6-0.3
		c0.4-0.4,0.9-0.9,1.6-1.2l0.9-0.4c0.4-0.3,0.8-0.5,1.1-0.7c0.4-0.1,0.6-0.3,1.1-0.4c0.1,0,0.1-0.1,0.1-0.1c0.9-0.8,0.9-0.8,1.9-1.1
		c0.1-0.1,0.1-0.1,0.2-0.2c0.2-0.1,0.2-0.1,0.4-0.2h0.1c0.3-0.3,0.6-0.5,0.9-0.6l1.1-0.6c0.3-0.1,0.6-0.4,1-0.4
		c0.1,0,0.2-0.1,0.2-0.1c0.1-0.4,0.6-0.4,0.9-0.6c0.4-0.2,0.6-0.4,0.9-0.4l0.6-0.4c0.4-0.1,0.6-0.4,1.2-0.4l0.6-0.4
		c0.5-0.2,1.1-0.3,1.4-0.6c0-0.1,0.1-0.1,0.1-0.1c0.4,0,0.6-0.2,1-0.4c0.2-0.1,0.6-0.1,0.9-0.3c0.5-0.3,1.1-0.3,1.6-0.6
		c0.2-0.1,0.4-0.2,0.7-0.2c0.2-0.1,0.5-0.1,0.8-0.4c0.2,0,0.4-0.1,0.7-0.1c0.1,0,0.3,0.1,0.5,0.1c0.1-0.1,0.1-0.3,0.3-0.3
		c0.4-0.1,0.7-0.2,1.2-0.2L120,14c0.3-0.1,0.6-0.1,0.8-0.1h0.2c0.1,0,0.3-0.1,0.4-0.1c0.4,0,0.6-0.1,0.9-0.1
		c0.3-0.2,0.5-0.2,0.8-0.2c0.1,0,0.3-0.1,0.6-0.1h0.8c0,0.1,0,0.1,0.1,0.1c0,0,0.1,0,0.1-0.1c0.1-0.1,0.2-0.1,0.4-0.1h1.2
		c0.3,0,0.5,0,0.9-0.1c0.1,0.1,0.4,0.1,0.6,0.1h0.7c0.1,0.1,0.2,0.1,0.4,0.1s0.3,0,0.4-0.1c0.4,0,0.8,0.1,1.2,0.1
		c0.4,0.2,0.9,0.1,1.3,0.4c0.9,0,1.6,0.4,2.3,0.5c0.1,0.1,0.2,0.1,0.3,0.1c0.3,0.1,0.4,0.3,0.6,0.3l0.5,0.5l0.7,0.4l0.3,0.2
		c0.1,0.1,0.1,0.2,0.1,0.4v0.1c0,0.3,0.2,0.4,0.3,0.4c0.4,0.3,0.6,0.6,1.1,0.9c0.1,0,0.1,0.1,0.1,0.3c0,0.1,0,0.1,0.1,0.2
		c0.2,0.1,0.3,0.2,0.3,0.4s0.1,0.3,0.2,0.4c0.1,0.5,0.2,0.9,0.2,1.4V21c0,0.1,0,0.2,0.1,0.3c0.3,0.1,0.3,0.3,0.3,0.4
		c0,0.4,0,0.7-0.3,1c-0.1,0.1-0.2,0.3-0.2,0.4s0.1,0.1,0.1,0.2s0.1,0.2,0.1,0.4c0.1,0.1,0.1,0.4,0.1,0.5c0,0.3-0.1,0.5-0.4,0.7
		c-0.3,0.3-0.4,0.6-0.5,1.1c-0.1,0.6-0.6,1.4-0.9,2.1l-1,1.5c-0.1,0.2-0.2,0.6-0.4,0.8c-0.2,0.3-0.4,0.6-0.6,0.9
		c-0.4,0.4-0.7,0.9-0.9,1.3c-0.2,0.2-0.4,0.4-0.5,0.4c-0.4,0.2-0.4,0.3-0.4,0.6c-0.1,0.1-0.1,0.1-0.1,0.1l-0.1-0.1
		c-0.1,0-0.3,0-0.3,0.1v0.1c0,0.1-0.1,0.1-0.1,0.1h-0.2c-0.1,0-0.3,0.1-0.3,0.3v0.1l0.1,0.1c0,0-0.1,0.1-0.2,0.1
		c0,0.1-0.1,0.2-0.1,0.3s-0.1,0.3-0.1,0.4c-0.3,0.1-0.6,0.4-0.8,0.6c-0.1,0.1-0.3,0.3-0.5,0.5l-0.1,0.1c-0.4,0.2-0.5,0.6-0.8,0.7
		c-0.2,0.1-0.3,0.3-0.5,0.3h-0.1c0,0-0.3-0.1-0.4-0.1c0,0-0.1,0.2-0.1,0.3c0.1,0.1,0.1,0.1,0.1,0.2c0,0.1,0,0.3-0.1,0.4h-0.1
		c-0.1,0-0.3,0-0.3,0.2s-0.2,0.2-0.4,0.4c-0.1,0.1-0.3,0.3-0.4,0.4s-0.3,0.1-0.6,0.3c-0.1,0-0.1,0.1-0.4,0.1
		c-0.3,0.1-0.4,0.4-0.6,0.4v0.1c0,0.1,0.1,0.1,0.1,0.1l0.1,0.1c-0.1,0-0.1,0.1-0.1,0.1c-0.1,0.1-0.1,0.1-0.1,0.1
		c-0.1,0-0.2-0.1-0.4-0.1c-0.1,0-0.1,0-0.2,0.1s-0.2,0.3-0.2,0.5c0,0.1-0.2,0.3-0.2,0.4l-0.4,0.4h-0.1c-0.1,0-0.2-0.1-0.2-0.2v-0.2
		h-0.1c-0.1,0.1-0.1,0.1-0.1,0.1s0,0.1,0.1,0.1v0.1c0,0.1-0.1,0.1-0.2,0.2c-0.4,0.2-0.6,0.5-1.1,0.7c-0.1,0.1-0.3,0.2-0.4,0.4
		l-0.1,0.1c0,0-0.1,0-0.1-0.1c-0.2-0.2-0.4-0.1-0.5-0.4h-0.2c-0.1,0.1-0.1,0.2-0.3,0.3c-0.1,0.1-0.1,0.2-0.1,0.3h0.4
		c0.2,0.1,0.4,0.2,0.5,0.2v0.1l-0.3,0.4c-0.2,0.1-0.3,0.1-0.4,0.1s-0.2,0-0.3-0.1c-0.1-0.1-0.4-0.1-0.5-0.1h-0.1v0.1
		c0.1,0.1,0.2,0.2,0.2,0.4v0.1h-0.5c-0.1,0-0.2,0.1-0.3,0.1c-0.1,0.1-0.1,0.1-0.1,0.4V45c0,0.1-0.1,0.1-0.3,0.1
		c-0.3,0-0.6,0.1-0.7,0.4c0,0-0.1,0.1-0.3,0.1c-0.3,0-0.6,0.2-0.7,0.4c-0.1,0.1-0.1,0.1-0.1,0.1c0,0.1,0.1,0.1,0.1,0.2h-0.1
		c-0.2,0-0.4,0.3-0.6,0.4c-0.5,0.1-0.9,0.2-1.2,0.6c-0.1,0.2-0.3,0.3-0.6,0.4l-0.9,0.5c-0.1,0.1-0.1,0.1-0.1,0.3v0.3
		c0,0.1,0,0.1-0.1,0.1c-0.1,0.1-0.2,0.1-0.3,0.1c-0.2,0-0.3-0.1-0.4-0.1c-0.2,0.1-0.4,0.4-0.8,0.5v0.1c0.3,0,0.4,0,0.6-0.1
		c0.4-0.2,0.8-0.3,1.3-0.4c1.4-0.4,2.7-0.6,4-0.8c0.1,0,0.3-0.1,0.4-0.1s0.2,0.1,0.4,0.1c0.1,0,0.1,0.1,0.1,0.1
		c0.1,0,0.3-0.1,0.4-0.1c0-0.1,0.2-0.1,0.4-0.1h4c0.3,0,0.5,0,0.7,0.1c0,0.1,0.3,0.1,0.4,0.1c0.9,0,1.9,0.2,2.8,0.4
		c0.4,0.1,0.8,0.3,1.2,0.4c0.5,0.1,0.9,0.2,1.4,0.4c0.3,0,0.4,0.1,0.5,0.2c0.1,0,0.4,0,0.4,0.2l0.1,0.1c1,0.5,1.4,0.6,2.2,1.3
		c0.2,0.1,0.5,0.3,0.6,0.5c0.1,0.1,0.3,0.1,0.3,0.3s0,0.3,0.1,0.4l1.1,0.9c0.1,0.1,0.2,0.1,0.3,0.1s0.2,0,0.2-0.1l0.9-0.2h0.1
		c0.5-0.3,1.2-0.2,1.7-0.3c0.1-0.1,0.1-0.1,0.3-0.2h0.3c0.1,0,0.1,0,0.2-0.1c0-0.1,0.2-0.1,0.3-0.1l0.6-0.2c0.1-0.1,0.2-0.1,0.4-0.1
		c0,0,0-0.1,0.1-0.1s0.1,0.1,0.1,0.1c0.2,0,0.4,0,0.5-0.1c0-0.1,0.2-0.1,0.2-0.1c0.2,0,0.4,0,0.5-0.1l0.1-0.1c0.5,0,0.9-0.1,1.3-0.3
		c0.1-0.1,0.3-0.1,0.4-0.1h0.4c0.4-0.2,0.9-0.3,1.5-0.3c0.1,0,0.1,0,0.3-0.1c0,0,0.2-0.1,0.4-0.1c0.6,0,1.2-0.1,1.9-0.1
		c0.4-0.1,0.9-0.1,1.3-0.1c0.4,0,0.7,0,1.1,0.1c0.1,0.1,0.3,0.1,0.5,0.1h0.5c0.1,0,0.3,0,0.4,0.1c0.3,0.1,0.5,0.1,0.7,0.1
		c0-0.1,0-0.1,0.1-0.1s0.3,0.1,0.4,0.1c0.1,0,0.2,0,0.2,0.1s0.1,0.2,0.1,0.3s-0.1,0.2-0.2,0.3h-0.1c-0.2,0.1-0.3,0.4-0.4,0.4
		c-0.2-0.1-0.3-0.1-0.6-0.1H151c-0.2,0-0.4,0-0.6,0.1c-0.4,0-0.9,0.1-1.3,0.1c-0.1,0-0.1-0.1-0.1-0.1c-0.1,0-0.2,0.2-0.4,0.3
		c-0.1,0-0.3-0.1-0.5-0.1l-1.5,0.4c-0.1,0-0.2,0-0.3,0.1c-0.1,0-0.2-0.1-0.4-0.1c-0.1,0-0.2,0-0.3,0.1S145.2,53,145,53
		s-0.4,0.1-0.6,0.1c-0.1,0.1-0.4,0.1-0.6,0.1c-0.3,0-0.6,0-0.6,0.3c0,0.1-0.1,0.1-0.1,0.1c-0.1,0-0.1,0-0.1-0.1
		c-0.1-0.1-0.3-0.1-0.3-0.1c-0.1,0,0,0,0,0.1c-0.1,0.1-0.1,0.2-0.3,0.2s-0.3,0.1-0.4,0.1c-0.1,0.1-0.3,0.2-0.4,0.2
		c-0.1,0-0.1-0.1-0.2-0.1c-0.1,0-0.1-0.1-0.1-0.1c-0.1,0-0.1,0.1-0.2,0.3c-0.1,0.1-0.3,0.2-0.4,0.3c-0.1,0.1-0.2,0.2-0.3,0.2h-0.5
		c-0.3,0.2-0.4,0.1-0.6,0.2c0,0.1-0.1,0.1-0.1,0.1l-0.1-0.1c-0.1,0-0.1,0-0.3,0.1l-0.1,0.1c-0.4,0.1-0.5,0.1-0.6,0.3v0.1
		c0,0.1,0.1,0.4,0.1,0.5c0.1,0.2,0.1,0.6,0.4,0.7c0,0.1,0.1,0.2,0.1,0.3s-0.1,0.2-0.1,0.3c-0.1,0.1-0.1,0.2-0.1,0.3s0,0.3,0.1,0.4
		V58c0,0.1,0,0.2-0.1,0.3s-0.1,0.4-0.1,0.6c0.1,0.1,0.1,0.3,0.1,0.4v1.2c0,0.2-0.1,0.6-0.1,0.8c-0.1,0.3-0.3,0.5-0.5,0.7
		c-0.1,0.1-0.1,0.1-0.1,0.1c0,0.6-0.4,0.9-0.6,1.4c-0.3,0.3-0.6,0.9-0.8,1.2c-0.1,0.4-0.6,0.8-0.9,1.3c-0.4,0.1-0.6,0.5-0.8,0.9
		c0,0,0,0.1-0.1,0.1c-0.3,0-0.3,0.2-0.4,0.5c-0.1,0.1-0.2,0.1-0.2,0.1l-0.2,0.3c-0.2,0.3-0.4,0.6-0.7,0.7c-0.1,0.1-0.2,0.1-0.4,0.3
		c-0.1,0.4-0.3,0.5-0.5,0.7c-0.2,0.3-0.4,0.4-0.6,0.6H131c-0.1,0.4-0.6,0.4-0.9,0.6c-0.1,0.4-0.5,0.6-0.9,1
		c-0.1,0.1-0.2,0.2-0.5,0.3c-0.1,0.1-0.5,0.1-0.6,0.4c0,0.1-0.2,0.2-0.3,0.2c-0.3,0-0.4,0.2-0.6,0.3c-0.2,0.4-0.6,0.6-1.1,0.9
		c0,0.1,0,0.1-0.1,0.1s-0.1,0-0.2-0.1c-0.1,0-0.1,0-0.2,0.2s-0.2,0.4-0.4,0.4l-1,0.6c0,0-0.1,0.1-0.3,0.1c0,0.1-0.1,0.1-0.3,0.4
		c-0.3,0.2-0.5,0.4-1,0.5c0,0.1-0.1,0.1-0.2,0.1c-0.3,0.3-0.6,0.5-1,0.6c-0.4,0.2-0.7,0.4-1,0.7c-0.2,0.1-0.4,0.4-0.6,0.4
		c-0.5,0.1-0.9,0.3-1.3,0.6c-0.1,0.1-0.4,0.1-0.6,0.3c-0.4,0.4-0.9,0.5-1.4,0.8c-0.4,0.3-0.9,0.6-1.4,0.6c-0.5,0.3-0.9,0.5-1.4,0.6
		L111,82c-0.4,0.1-0.8,0.1-1.2,0.4c-0.3,0-0.6,0.1-0.8,0.3c-0.1,0.1-0.1,0.1-0.4,0.1c-0.1,0-0.2,0.1-0.3,0.1
		c-0.1,0.1-0.4,0.3-0.6,0.3c-0.1,0.1-0.3,0.2-0.6,0.2c-0.1,0-0.3,0-0.4,0.1s-0.1,0.1-0.2,0.1c-0.2,0.1-0.5,0.1-0.6,0.2
		c-0.1,0-0.1,0.1-0.2,0.1s-0.4,0-0.4,0.1c-0.1,0.1-0.1,0.2-0.3,0.2c-0.4,0.1-0.6,0.3-1.1,0.4c-0.2,0-0.6,0.1-0.9,0.1h-0.2
		c-0.4,0.1-0.6,0.3-1,0.3s-0.6,0.1-1,0.1c-0.3,0.1-0.4,0.1-0.7,0.1c-0.1,0.1-0.1,0.1-0.2,0.1c-0.1-0.1-0.1-0.1-0.2-0.1
		s-0.3,0.1-0.4,0.1c-0.2,0-0.3,0-0.6,0.1c-0.1,0.1-0.2,0.1-0.3,0.1c-0.1,0-0.3,0-0.4-0.1c-0.1,0-0.2-0.1-0.3-0.1h-0.2
		c-0.3,0-0.4-0.1-0.7-0.3c-0.1-0.3-0.2-0.4-0.4-0.5c-0.1,0-0.2-0.1-0.3-0.1c0-0.2-0.1-0.5-0.3-0.7c-0.1-0.1-0.3-0.4-0.3-0.6
		s0.1-0.5,0.3-0.7c0.2-0.2,0.3-0.6,0.4-0.9c0.2-0.2,0.5-0.6,0.5-0.8c0-0.2,0.1-0.3,0.3-0.4c0.2-0.2,0.4-0.6,0.5-0.9
		c0.1-0.4,0.3-0.6,0.5-0.9c0.4-0.4,0.5-0.6,0.7-1c0.1-0.1,0.1-0.3,0.3-0.4c0.3-0.2,0.5-0.6,0.7-0.9c0.3-0.4,0.4-0.6,0.7-1
		c0.1-0.3,0.1-0.4,0.4-0.5c0.2,0,0.2-0.1,0.3-0.2c0.2-0.2,0.4-0.4,0.5-0.6l0.4-0.3l0.8-0.8c0.2-0.1,0.3-0.3,0.4-0.3s0.1,0.1,0.1,0.1
		l0.1-0.1c0-0.1,0.1-0.1,0.2-0.4c0.1-0.1,0.1-0.1,0.2-0.1s0.1,0.1,0.1,0.1c0.1,0,0.1,0,0.1-0.1v-0.2c0-0.1,0.1-0.2,0.2-0.2l1-0.9
		c0.4-0.4,0.8-0.6,1.3-0.9c0.4-0.2,0.6-0.5,0.8-0.7c0.4-0.4,0.7-0.6,1.2-0.9l0.1-0.1c0.4-0.3,0.7-0.6,1.2-0.8
		c0.2-0.2,0.3-0.4,0.6-0.4h0.1c0.1,0,0.2-0.1,0.2-0.3s0.2-0.2,0.4-0.2c0.1-0.3,0.6-0.3,0.6-0.7c0.6-0.1,0.8-0.6,1.4-0.7l0.3-0.2h0.5
		v-0.5c0,0,0-0.1,0.1-0.1l0.1,0.1c0.1,0,0.1,0.1,0.2,0.1c0,0,0.1,0.1,0.1,0c0.1,0,0.1-0.1,0.1-0.1c0-0.1-0.1-0.1-0.1-0.2
		s0.1-0.2,0.2-0.2c0.4,0,0.4-0.1,0.5-0.3c0.2-0.3,0.5-0.6,0.9-0.6c0.4-0.1,0.6-0.4,0.9-0.4c0.2-0.1,0.2-0.1,0.2-0.2
		c0.1-0.2,0.1-0.3,0.2-0.3s0.1,0.1,0.1,0.1h0.2c0.2,0,0.2-0.2,0.3-0.1l0.3,0.2c0.1,0,0.1,0.1,0.1,0.1s0.1,0,0.1-0.1
		c0.1,0,0.1,0,0.1-0.1v-0.1c0-0.1-0.1-0.3-0.1-0.4c0.1,0,0.3,0,0.4-0.2c0.4-0.3,0.7-0.7,1.3-0.9c0.1,0,0.4-0.1,0.4-0.2
		c0.1-0.1,0.3-0.1,0.4-0.1c0.2,0,0.3-0.1,0.5-0.2c0.1-0.3,0.5-0.6,0.9-0.6c0.1-0.1,0.2-0.1,0.3-0.1h0.1c0.1,0,0.1-0.1,0.3-0.3h0.2
		l-0.1,0.1v0.1c0,0.1,0,0.1,0.1,0.1h0.1l0.1-0.3c0.1-0.1,0.1-0.1,0.1-0.2c0-0.1,0-0.1,0.2-0.2c0.1,0,0.1-0.1,0.3-0.2
		c0.3-0.1,0.6-0.4,0.9-0.4c0.4-0.1,0.6-0.3,1-0.4l0.4-0.3c0.1,0,0.1-0.1,0.2-0.1c0.3,0,0.6,0,0.8-0.3c0.1-0.2,0.6-0.3,0.8-0.4
		c0.1-0.1,0.4-0.2,0.6-0.2h0.1c0.4-0.2,0.6-0.3,1-0.5c0.1,0,0.2-0.1,0.3-0.1c0.1-0.1,0.2-0.1,0.2-0.1c0.2-0.2,0.4-0.3,0.8-0.3
		c0.3-0.1,0.6-0.1,0.9-0.3l1.7-0.8c0.2,0,0.2-0.1,0.2-0.2c-0.4-0.4-0.7-0.8-1.2-1.1s-0.9-0.8-1.5-1c-0.3-0.1-0.6-0.3-1.2-0.4
		c-0.6-0.4-1.4-0.4-2.2-0.6c-0.1,0-0.1-0.1-0.1-0.1l-1.9-0.1h-0.4c-0.3-0.1-0.6-0.1-0.9-0.1L124.2,50.6L124.2,50.6z M110.6,25.7
		l0.3,0.1c0.1,0.3,0.2,0.4,0.3,0.7v0.4c-0.2,0.1-0.2,0.5-0.2,0.7c0,0.4-0.1,0.6-0.1,1c-0.1,0-0.1,0.1-0.1,0.1
		c-0.4,0.1-0.4,0.4-0.4,0.6c-0.1,0.4-0.2,0.6-0.4,0.9c-0.1,0.4-0.3,0.7-0.3,1.1c-0.1,0.4-0.2,0.9-0.4,1.3c-0.1,0.4-0.3,0.7-0.6,1
		l-0.2,0.7c-0.1,0.3-0.2,0.6-0.4,0.7c-0.1,0.1-0.1,0.2-0.1,0.3v0.9c0,0.1-0.1,0.3-0.2,0.4c-0.1,0.1-0.1,0.3-0.2,0.4
		c-0.2,0.6-0.4,1.2-0.4,1.8c-0.2,0.2-0.4,0.5-0.5,0.8c0,0.1-0.1,0.3-0.1,0.3c0,0.4-0.3,0.8-0.4,1.2c-0.2,0.4-0.4,0.9-0.4,1.4
		c0,0.1-0.1,0.4-0.1,0.6c0,0.1-0.3,0.4-0.4,0.6c0,0.2-0.1,0.4-0.2,0.6c-0.1,0.1-0.1,0.3-0.1,0.4c0,0.2-0.1,0.4-0.2,0.6
		c-0.1,0.1-0.1,0.4-0.1,0.5s-0.1,0.2-0.1,0.3c-0.1,0.3-0.2,0.6-0.4,1c-0.1,0.6-0.4,1.2-0.7,1.9c0,0.2-0.1,0.5-0.1,0.6
		c-0.1,0.7-0.3,1.4-0.6,2c-0.1,0.1-0.2,0.1-0.2,0.3c0,0.4-0.1,0.7-0.1,1c-0.3,0.6-0.5,1.2-0.6,1.7c0,0.1,0,0.2-0.1,0.3
		s-0.3,0.2-0.3,0.3c0,0.3-0.3,0.5-0.3,0.6v0.6c0,0.1-0.1,0.2-0.1,0.4V57c0,0.1-0.1,0.1-0.2,0.1c-0.2,0.4-0.3,0.7-0.4,1v0.1
		c0,0.1-0.1,0.4-0.1,0.6c0,0.2-0.2,0.4-0.2,0.6c-0.1,0.2-0.2,0.3-0.2,0.5V60c0,0.2-0.1,0.5-0.1,0.7c0,0.3,0,0.5-0.1,0.7
		c-0.1,0.4-0.4,0.7-0.4,1.1V63c0,0,0,0.1-0.1,0.1c-0.3,0.4-0.2,0.9-0.4,1.2c-0.1,0.3-0.1,0.6-0.3,0.9c0,0.1,0.1,0.1,0.3,0.2v0.1
		c-0.2,0.1-0.3,0.1-0.3,0.2s0.1,0.1,0.1,0.2s0.1,0.1,0.1,0.3s-0.1,0.3-0.1,0.4l-0.4,0.9c-0.1,0.2-0.1,0.4-0.1,0.6v0.1
		c0,0.1-0.1,0.2-0.2,0.2c-0.1,0.1-0.1,0.2-0.1,0.4c0,0.1,0.1,0.2,0.1,0.4v0.6c0,0.1,0.1,0.2,0.1,0.4c0,0.1,0,0.1-0.1,0.2
		s-0.1,0.4-0.1,0.6c-0.2,0.6-0.3,1.2-0.4,1.8V73c0,0.2-0.1,0.5-0.1,0.7v0.1c0,0.3,0,0.6-0.1,0.9c0,0.1,0.1,0.1,0.1,0.3
		c0,0.1,0.1,0.2,0.1,0.4v0.1c0,0.2-0.1,0.4-0.1,0.6c0,0.4,0.1,0.5,0.1,0.8c0,0.1-0.1,0.2-0.1,0.3c-0.1,0.1-0.1,0.1-0.1,0.2
		s0.1,0.2,0.2,0.4c0,0,0.1,0,0.1,0.1V78c0,0.3,0,0.5-0.3,0.6c-0.1,0.1-0.4,0.1-0.5,0.1s-0.3-0.1-0.5-0.1c-0.1-0.1-0.1-0.2-0.1-0.2
		c-0.4-0.1-0.5-0.2-0.5-0.5v-0.4c0-0.1-0.1-0.1-0.1-0.1c-0.1-0.1-0.2-0.1-0.2-0.3c0-0.1,0.1-0.1,0.1-0.2c0.1-0.3,0.1-0.6,0.4-0.7
		c0.1-0.1,0.1-0.1,0.1-0.3V74c0-0.1,0.1-0.1,0.1-0.1c0-0.1-0.1-0.1-0.4-0.1h-0.1c-0.1,0-0.2-0.1-0.2-0.3c-0.1-0.1-0.1-0.1-0.1-0.1
		c-0.1,0-0.1,0-0.2,0.1H95l-0.1-0.1c0-0.2,0.1-0.3,0.4-0.4c0.1,0,0.1,0,0.1-0.1c0,0,0-0.1-0.1-0.1c-0.2,0-0.3,0-0.3-0.1
		c-0.1-0.1-0.1-0.3-0.1-0.4s0.1-0.1,0.1-0.4c0.1,0,0.1-0.1,0.1-0.1c0-0.1,0-0.1-0.1-0.1V71c0-0.4,0.2-0.6,0.2-1v-0.2
		c0-0.3,0.1-0.6,0.1-1.2c0.1-0.5,0.1-1.2,0.2-1.7s0.1-1.2,0.4-1.8V65c0.1-0.4,0.3-0.8,0.3-1.2c0-0.4,0.1-0.7,0.1-1.1
		c0.1-0.4,0.1-0.7,0.4-0.9c0.1-0.1,0.1-0.2,0.1-0.3v-0.4c0-0.1,0-0.2,0.1-0.4c0.1-0.1,0.1-0.3,0.1-0.4c0-0.4,0-0.7,0.4-1
		c0-0.1,0.1-0.1,0.1-0.2c0-0.1-0.1-0.2-0.1-0.3v-0.2c0-0.1,0-0.4,0.1-0.5s0.1-0.3,0.1-0.4c0-0.2,0-0.5,0.2-0.6c0-0.1,0-0.1,0.1-0.2
		c0-0.6,0.1-1.3,0.4-1.9c0-0.4,0-0.8,0.2-1.1c0.1-0.1,0.1-0.1,0.1-0.4c0-0.1,0-0.4,0.1-0.4c0.1-0.1,0.1-0.1,0.1-0.1v-0.1
		c0-0.6,0.4-1.2,0.4-1.7c0-0.3,0.1-0.4,0.2-0.6c0-0.1,0.1-0.2,0.1-0.2v-0.2c0-0.8,0.4-1.4,0.6-2.1c0-0.3,0.1-0.6,0.2-0.9
		c0.2-0.3,0.3-0.5,0.3-0.8c0-0.1,0.1-0.3,0.1-0.4c0.1-0.3,0.1-0.6,0.3-0.8c0-0.1,0-0.2,0.1-0.3c0.1-0.4,0.4-0.5,0.4-0.8l0.2-0.7
		l0.2-0.8l0.5-1.2c0.2-0.3,0.4-0.6,0.4-1.1c0.1-0.4,0.3-0.9,0.5-1.4c0-0.1,0.1-0.1,0.1-0.3c0.2-0.3,0.2-0.6,0.3-0.9
		c0.4-0.6,0.4-1.4,0.8-2.1c0.2-0.3,0.2-0.7,0.4-1.2c0.1-0.1,0.1-0.2,0.1-0.3c0.1-0.3,0.3-0.4,0.3-0.8c0-0.1,0-0.1,0.1-0.4l0.4-1.4
		c0-0.1,0.2-0.4,0.2-0.4c0-0.4,0.1-0.6,0.3-0.9V30c0-0.4,0.4-0.9,0.4-1.2c0-0.2,0.2-0.6,0.2-0.8l0.7-1.6c0.3-0.1,0.3-0.3,0.4-0.4
		c0.1-0.4,0.4-0.6,1-0.6c0.3,0,0.4,0,0.6-0.1c0.1-0.1,0.2-0.1,0.4-0.1C109.9,25.5,110.3,25.6,110.6,25.7z M94.7,74.3
		c0.1-0.1,0.1-0.1,0.1-0.2H95c0,0,0,0.1,0.1,0.1v0.1c-0.1,0-0.1,0.1-0.1,0.2s0,0.3,0.1,0.4c0,0.1-0.1,0.2-0.1,0.3
		c-0.1,0.1-0.1,0.1-0.1,0.1c0,0.1-0.1,0.1-0.1,0.1c-0.1,0-0.1-0.1-0.1-0.1S94.7,74.3,94.7,74.3z M95.4,72.5L95.4,72.5
		c-0.2,0-0.2,0.1-0.2,0.2c0,0,0.1,0,0.1,0.1C95.4,72.7,95.4,72.5,95.4,72.5z M95.5,71.4C95.5,71.4,95.4,71.4,95.5,71.4L95.5,71.4
		L95.5,71.4z M95.5,70.6L95.5,70.6c0.1,0.1,0.2,0.1,0.2,0c0.1-0.1,0.1-0.1,0.1-0.2s0-0.1-0.1-0.1h-0.1
		C95.5,70.4,95.5,70.5,95.5,70.6L95.5,70.6z M95.9,68.3C95.9,68.4,95.9,68.4,95.9,68.3c0.1,0,0.2,0,0.2,0c0-0.1,0.1-0.1,0.1-0.1
		c0-0.1-0.1-0.1-0.1-0.1C96.1,68.2,96,68.2,95.9,68.3L95.9,68.3L95.9,68.3z M96.5,65.9C96.5,65.8,96.5,65.8,96.5,65.9l-0.3,0.9
		l-0.1,0.1c0,0,0,0.1,0.1,0.1c0,0.1,0,0.1,0.1,0.1s0.1,0,0.1-0.1s0-0.4,0.1-0.8V65.9z M96.8,64.5c0,0.1-0.1,0.3-0.1,0.4
		s0,0.1,0.1,0.1v0.1c0.1-0.1,0.1-0.2,0.1-0.3C96.9,64.7,96.9,64.6,96.8,64.5z M109,80.5c0.1-0.1,0.1-0.3,0.3-0.4
		c0.4-0.2,0.7-0.5,1.1-0.7c0.1-0.1,0.2-0.1,0.3-0.1c0.4-0.1,0.7-0.2,1-0.4c0.4-0.3,0.9-0.5,1.3-0.6c0.3-0.1,0.6-0.1,0.6-0.4l0.9-0.3
		c0.1,0,0.1,0,0.3-0.2l0.4-0.2c0.4-0.2,0.6-0.3,0.9-0.5c0.1-0.1,0.3-0.1,0.4-0.2c0.2,0,0.4-0.1,0.6-0.4l0.3-0.2
		c0.4-0.1,0.9-0.3,1.2-0.5c0.2-0.1,0.6-0.3,0.8-0.4c0.4-0.1,0.6-0.3,0.9-0.5c0.4-0.4,1.1-0.8,1.7-1.2c0.6-0.4,1.3-0.7,1.9-1.2
		c0.6-0.4,1-0.9,1.8-1.4l1.1-0.9c0.1,0,0.1-0.2,0.4-0.3l1.5-1.2l1.2-1.1l0.3-0.2c0.1-0.4,0.6-0.6,0.9-1c0.3-0.2,0.6-0.5,0.9-0.9
		c0.2-0.4,0.5-0.8,0.9-1.1c0.3-0.3,0.5-0.6,0.8-1.1c0.1-0.3,0.5-0.6,0.6-0.9l0.9-1.4c0-0.4,0.3-0.5,0.4-0.9c0.2-0.4,0.2-0.9,0.5-1.4
		v-1.2c0-0.4-0.2-0.6-0.3-0.9c-0.1-0.3-0.1-0.3-0.3-0.3l-0.3,0.2c-0.4,0.1-0.7,0.1-1.1,0.1c-0.2,0-0.4,0.1-0.5,0.3
		c-0.1,0.1-0.6,0-0.6,0.4c0,0-0.1,0-0.1,0.1c-0.9,0.2-1.6,0.7-2.5,1c-0.4,0.1-0.8,0.2-1.1,0.5l-0.2,0.1c-0.1,0-0.1-0.1-0.1-0.1h-0.2
		c-0.1,0.4-0.4,0.4-0.6,0.5c-0.1,0.1-0.4,0.2-0.6,0.2h-0.3c-0.2,0-0.4,0-0.4,0.3c0,0-0.1,0.1-0.2,0.1c-0.1,0.1-0.3,0.1-0.5,0.1h-0.3
		c-0.1,0-0.2,0.1-0.3,0.1c-0.1,0-0.1,0.1-0.1,0.1c0,0.1,0,0.1,0.1,0.1l0.1,0.1l-0.4,0.2c-0.8,0.6-0.9,0.7-2.2,1.2H123
		c-0.1,0.2-0.4,0.3-0.4,0.5c-0.1,0.1-0.3,0.2-0.6,0.2c-0.1,0-0.2,0.2-0.4,0.4c-0.4,0.2-0.6,0.5-1,0.5c-0.1,0-0.1,0.1-0.2,0.1
		c-0.1,0.2-0.1,0.3-0.2,0.3c-0.1,0.1-0.1,0.1-0.2,0.1c0,0-0.1,0-0.1-0.1h-0.1c-0.1,0-0.1,0.1-0.1,0.1c0,0.1-0.1,0.2-0.1,0.2
		c-0.3,0.1-0.5,0.1-0.6,0.1c0-0.1,0-0.1-0.1-0.1l-0.1,0.1c-0.1,0.3-0.3,0.6-0.6,0.7l-0.4,0.4c-0.1,0.1-0.4,0.2-0.6,0.2
		c-0.1,0-0.1,0.1-0.2,0.1c-0.1,0.2-0.4,0.3-0.5,0.4c-0.3,0.4-0.6,0.6-1.1,0.8c-0.2,0.1-0.4,0.2-0.6,0.4c-0.1,0.1-0.1,0.1-0.2,0.1
		l-0.1-0.1h-0.1c-0.1,0-0.1,0-0.1,0.1s-0.2,0.2-0.4,0.2c-0.1,0-0.2,0.2-0.3,0.4l-0.4,0.4c-0.5,0.3-0.9,0.7-1.3,0.9
		c-0.2,0.1-0.6,0.3-0.7,0.4s-0.5,0.3-0.5,0.6c-0.1,0.3-0.4,0.3-0.7,0.4l-0.1,0.1l-0.5,0.5c-0.4,0.4-0.9,0.6-1.2,1
		c-0.4,0.4-0.9,0.8-1.3,1.2c-0.2,0.2-0.4,0.3-0.6,0.4c0,0.1-0.2,0.2-0.2,0.3c-0.1,0.3-0.4,0.5-0.6,0.7c-0.5,0.6-1.1,1.1-1.7,1.7
		c-0.1,0.1-0.2,0.1-0.4,0.4c-0.3,0.4-0.7,0.7-1,1.2c-0.3,0-0.4,0.3-0.4,0.4c-0.1,0.3-0.3,0.6-0.6,0.8c-0.2,0-0.3,0.1-0.3,0.3
		c-0.1,0.2-0.4,0.3-0.4,0.6l-0.1,0.1c-0.1,0.1-0.1,0.3-0.1,0.4c0,0.3-0.2,0.4-0.4,0.6c-0.4,0-0.4,0.4-0.4,0.7c0,0.4-0.3,0.9-0.6,1.1
		V83c0,0.1,0,0.1,0.1,0.1s0.1,0.1,0.2,0.1h1c0.2,0,0.4-0.1,0.5-0.1c0.4-0.1,0.6-0.1,1.1-0.1c0.2-0.1,0.5-0.1,0.7-0.2
		c0.1-0.1,0.2-0.1,0.4-0.1c0.3,0,0.6-0.3,0.9-0.4c0.1-0.1,0.2-0.1,0.5-0.1c0.2,0,0.4-0.1,0.6-0.3l0.6-0.3c0.1-0.1,0.1-0.1,0.1-0.1
		c0.1,0,0.1,0.1,0.1,0.2l0.1,0.1c0.1,0,0.1-0.1,0.3-0.1v-0.1c0-0.3,0.1-0.4,0.3-0.4l0.9-0.4c0.1-0.1,0.4-0.1,0.5-0.3
		c0.3,0,0.4-0.1,0.6-0.1c0.1-0.1,0.1-0.1,0.2-0.1S108.9,80.4,109,80.5C108.5,80.7,108.7,80.6,109,80.5z M104.9,71.7L104.9,71.7
		C104.8,71.8,104.9,71.8,104.9,71.7L104.9,71.7z M107,81.3h-0.2v0.1L107,81.3L107,81.3z M107.6,81c-0.1,0-0.5,0-0.6,0.3
		C107.2,81.3,107.5,81.2,107.6,81z M107.6,81c0.1,0,0.4,0,0.6-0.3C107.9,80.7,107.7,80.7,107.6,81z M108.5,80.5L108.5,80.5
		c-0.1-0.2,0-0.2,0-0.2h0.1c0.1-0.1,0.1-0.1,0.1-0.1c0.1,0,0.2,0.1,0.3,0.3C109,80.5,108.5,80.5,108.5,80.5z M110.9,79.5
		C110.9,79.6,110.8,79.6,110.9,79.5l-0.2,0.2h0.3c0,0,0.1,0,0.1-0.1v-0.1H110.9z M113.5,78.4L113.5,78.4c0,0.1,0,0.2,0,0.2
		c0.1-0.1,0.3-0.1,0.4-0.2C113.7,78.4,113.6,78.4,113.5,78.4z M113.9,78.4L113.9,78.4C114,78.4,114,78.3,113.9,78.4L113.9,78.4
		L113.9,78.4z M120.4,76.8L120.4,76.8C120.3,76.9,120.4,76.9,120.4,76.8L120.4,76.8z M121.7,41.4C121.7,41.4,121.8,41.4,121.7,41.4
		c0.4-0.3,0.7-0.6,1-0.7c0.1-0.1,0.2-0.2,0.2-0.3s0-0.1,0.2-0.2c0.4-0.1,0.6-0.6,1-0.8c0.2-0.3,0.4-0.4,0.6-0.5v-0.1l-0.1-0.1
		c-0.1,0.1-0.2,0.1-0.4,0.2c-0.1,0.1-0.3,0.2-0.4,0.4c-0.2,0.1-0.5,0.4-0.6,0.6c-0.3,0.1-0.6,0.3-0.8,0.5c-0.1,0.2-0.3,0.3-0.5,0.4
		l-0.3,0.4c-0.2,0-0.2,0.1-0.2,0.1C121.7,41.4,121.7,41.4,121.7,41.4z M124.5,41.1L124.5,41.1C124.6,41.2,124.6,41.1,124.5,41.1
		C124.6,41.1,124.5,41.1,124.5,41.1L124.5,41.1z M125.2,38.4L125.2,38.4L125.2,38.4h0.2H125.2z M125.7,40.6c0,0-0.1,0.1-0.2,0.1
		v-0.1C125.5,40.6,125.6,40.6,125.7,40.6L125.7,40.6z"/>
	<path class="st0" d="M170.4,50.7v0.2c-0.1,0.3-0.6,0.3-1.1,0.4c-0.3,0.2-0.6,0.5-1.2,0.6c-0.3,0-1.1,0.3-1.2,0.3
		c-0.4,0-0.6,0.1-0.9,0.2h-0.7c-0.2,0-0.4,0-0.5-0.1v0.1c0,0-0.1,0-0.1-0.1c-0.3,0.3-2,0.1-2.4,0.3h-3c-0.1-0.1-0.1,0-0.1,0
		c-0.3,0-0.5,0.1-0.6,0.1h-0.2c-0.1-0.1-0.9-0.4-0.9-0.5c-0.1,0-0.4,0.1-0.6,0.1c-0.1,0-0.1,0.1-0.3,0.1c-0.2,0.2-0.4,0.2-0.6,0.4h0
		c0,0,0,0.1,0.1,0.1c0.2,0.4,1.3,0.4,1.4,0.9c0,0.1,0.1,0.2,0.1,0.3l0.3,0.4c0.1,0.1,0.2,0.4,0.2,0.7c0.3,0.1,0.1,0.4,0.3,0.6
		c0.2,0.1,0.1,0.4,0.2,0.6l0.1,0.1c-0.1,0.1-0.1,0.1-0.1,0.2c0,0.1,0,0.1,0.1,0.2c0,0.1,0,0.1,0,0.1c0,0.1,0,0.2,0,0.3v0.1
		c0,0.1-0.1,0.2-0.1,0.4c0.1,0.1,0.1,0.1,0.1,0.4v0.5c-0.1,0.1-0.1,0.1-0.1,0.1c-0.1,0.3-0.3,0.5-0.3,0.7v0.1c0,0.3-0.1,0.6-0.2,0.8
		c-0.1,0.1-0.1,0.1-0.1,0.4c0,0,0,0.1,0.1,0.1V61l-0.4,0.6c-0.1,0.2-0.2,0.3-0.2,0.5v0.2c0,0.1-0.1,0.3-0.2,0.4l-0.4,0.6
		c-0.1,0.2-0.4,0.3-0.4,0.6c0,0.1-0.1,0.1-0.2,0.3l-0.5,0.4v0.2c0,0,0.1,0.1,0.1,0.2l-0.3,0.1c-0.2,0.1-0.4,0.4-0.7,0.4
		c-0.1,0.1-0.3,0.2-0.3,0.4c-0.3,0.2-0.4,0.2-0.6,0.3c-0.1,0.1-0.4,0.1-0.6,0.3c-0.1,0.1-0.1,0.1-0.3,0.1s-0.2,0-0.2-0.1h-0.1
		c-0.1,0.1-0.5,0.1-0.6,0.1h-0.5c-0.3,0.1-0.4,0.1-0.6,0.1c-0.2,0-0.2,0-0.3-0.1c-0.1,0-0.2,0-0.4-0.1c-0.2-0.2-0.5-0.1-0.7-0.4
		c-0.2-0.1-0.4-0.2-0.6-0.2c-0.3,0-0.4-0.2-0.6-0.3c-0.1-0.2-0.1-0.3-0.4-0.3c-0.1,0-0.3-0.1-0.4-0.1c-0.1-0.2-0.3-0.4-0.4-0.6
		c-0.6-0.3-0.6-0.8-0.6-1.4c-0.1-0.1-0.1-0.2-0.1-0.3c0-0.4-0.1-0.6-0.1-0.9c0-0.2,0.2-0.3,0.2-0.4s-0.1-0.3-0.1-0.5
		c0-0.1,0-0.3,0-0.4c0-0.1,0-0.1,0-0.1c0-0.3,0.1-0.4,0.2-0.6v-0.6c0-0.1-0.1-0.1-0.1-0.2c0.4-0.7,0.8-1.6,1.1-2.4
		c0.1-0.1,0.4-0.1,0.4-0.1c0.2-0.1,0.4-0.3,0.5-0.4c0.1,0,0.1-0.1,0.1-0.3v-0.1c0-0.1,0-0.1,0.1-0.1c0.4-0.2,0.4-0.7,0.6-1.1
		c0.1-0.1,0.1-0.4,0.4-0.6c0-0.2,0.1-0.4,0.2-0.5c0.1-0.2,0.4-0.6,0.6-0.9c0-0.1,0.1-0.1,0.1-0.1c0.1-0.1,0.2-0.3,0.4-0.3
		c0.2-0.1,0.1-0.2,0.4-0.4L152,52c0.1-0.1,0.1-0.2,0.2-0.2c0.4-0.2,0.4-0.5,0.7-0.6c0.4-0.1,0.5-0.3,0.7-0.3h0.3
		c0.2-0.4,0.7-0.6,1-0.9h0.2c0.3,0,1,0.3,1.4,0.3h0.4c0.1,0,0.3,0.1,0.4,0.1c0.3,0.3,0.8,0.6,1,0.6h0.1c0.2-0.1,0.4-0.1,0.6-0.1
		c0.5,0.1,2.7,0.1,3.2,0.1h0.2c0.3,0,0.4,0.1,0.6,0.1s0.4,0,0.4-0.1c0.1,0,0.2,0.1,0.3,0.1c0.6,0,1.6-0.1,1.7-0.2h0.1
		c0.1,0,0.3-0.2,0.6-0.2c0.1,0,0.1,0,0.1,0.1c0.1-0.1,0.1-0.1,0.2-0.1c0.1,0,0.1,0,0.4-0.1l2.1-0.5h0.6
		C170.1,50.1,170.4,50.2,170.4,50.7z M155.9,57.2C155.9,57.1,155.9,57.1,155.9,57.2c0-0.2,0-0.4,0-0.5c-0.3-0.3-0.1-0.5-0.3-0.6
		c-0.1-0.1-0.1-0.4-0.1-0.6c-0.1-0.4-0.2-0.8-0.4-1c-0.3-0.3-0.5-0.6-0.6-0.9c-0.1,0-0.1-0.1-0.2-0.1c-0.1,0-0.1,0.1-0.1,0.1
		c-0.3,0.3-0.4,0.5-0.7,0.6v0.2c-0.2,0.3-0.4,0.6-0.6,1.1c0,0.1,0,0.1-0.1,0.1c-0.3,0.4-0.6,0.6-0.6,0.9l-0.4,1.2
		c-0.1,0-0.2,0.1-0.3,0.3c0,0.2-0.1,0.4-0.4,0.6c0,0-0.2,0-0.2,0.1c0,0.4,0,0.5-0.1,0.8c-0.1,0.5-0.3,1-0.5,1.4l-0.1,0.1
		c0.1,0.2,0.1,0.4,0.1,0.4c0,0.2-0.1,0.6-0.1,0.8c0,0.1,0,0.4,0.1,0.6v0.6c-0.1,0.1-0.1,0.1-0.1,0.1c0.1,0.3,0.1,0.5,0.1,0.7
		c0,0.4,0.4,0.5,0.4,0.6v0.1V65c0,0.1,0.1,0.1,0.2,0.1c0,0,0.1,0.1,0.2,0.1c0.1,0.1,0.1,0.1,0.1,0.1c0.1,0,0.3-0.1,0.4-0.2l0.5-0.2
		c0-0.1,0.1-0.1,0.2-0.1c0.5-0.5,1-0.9,1.4-1.5c0.1-0.1,0.1-0.1,0.1-0.2c0.1-0.3,0.4-0.4,0.4-0.7l0.5-0.8c0-0.2,0.1-0.5,0.4-0.8
		l0.2-0.7c0.1-0.1,0.1-0.1,0.1-0.3V59c0-0.1,0.1-0.2,0.1-0.4l0.2-1v-0.4H155.9z"/>
	<path class="st0" d="M171.1,61.2c-0.4,1.5-1.4,3-2.3,4.6c-0.4,0.5-0.6,1.1-0.6,1.7c-0.1,0.6-0.5,1.2-0.9,1.8c0,0.1-0.4,0.1-0.6,0.1
		c-0.8,0-1.7-0.6-1.8-1.3c0-0.1,0-0.3-0.1-0.3c-0.6-0.2-0.8-0.6-0.8-1c0-0.2,0.1-0.4,0.1-0.6c0-2.2,0.6-4.2,1.3-6.3l1.4-4.7
		c0.6-1.8,1.1-3.5,1.6-5c0.4-1,0.6-2.1,0.8-3.2c0.3-1.1,0.6-2.2,0.9-3.3c0.1-0.2,0.2-0.5,0.4-0.5c0.4,0,0.5,0.1,0.6,0.6
		c0.6,0.6,0.6,1.4,0.6,2.2v0.5c-0.2,1.4-0.4,2.7-0.7,4.1c-0.1,1.1-0.4,2.2-0.6,3.3c-0.1,0.5-0.6,1.2-0.6,1.7V56
		c0,0.8-0.2,1.5-0.4,2.2v0.4c0.2-0.1,0.4-0.2,0.6-0.4c0.9-0.7,1.4-1.6,2-2.4c0.1-0.2,0.4-0.4,0.5-0.5c1.2-1.1,1.9-2.2,3.1-3.1
		c0.9-0.6,1.8-1.2,2.7-1.7c0.6-0.4,1.3-0.6,2-0.6s1.4,0.2,2,0.5c0.3,0.1,0.5,0.4,0.5,0.5s-0.1,0.3-0.4,0.5c-0.1,0.1-0.1,0.1-0.2,0.1
		c-0.1,0.3-0.1,0.6-0.4,0.9c-0.1,0.1-0.3,0.4-0.4,0.4v-0.4c0-0.2,0-0.4-0.2-0.6c-0.1-0.1-0.1-0.1-0.3-0.1s-0.4,0-0.5,0.1
		s-0.1,0.4-0.2,0.4c-0.5,0.1-0.7,0.3-0.8,0.8c0,0-0.3,0.1-0.4,0.2c-0.7,0.4-1.3,1.2-1.9,1.8c-0.1,0.1-0.2,0.2-0.5,0.3
		c-0.6,0.1-0.8,1-1.2,1.4c-0.6,0.6-1.1,1.2-1.7,1.8c-0.2,0.3-0.6,0.6-0.9,0.7c-0.1,0.1-0.1,0.1-0.1,0.2
		C172.3,59.9,171.8,60.4,171.1,61.2C171.1,61.1,171.1,61.1,171.1,61.2z M169.1,59.3h0.3v-0.4L169.1,59.3z M169.6,60.6
		c0.1,0,0.2-0.1,0.2-0.1l0.4-0.9c-0.1,0.4-0.5,0.6-0.6,0.8C169.5,60.5,169.6,60.6,169.6,60.6z M171,58.6c-0.4,0.1-0.6,0.4-0.6,0.9
		C170.8,59.1,171,58.8,171,58.6z M171,58.6c0.1-0.1,0.4-0.1,0.5-0.3c0.5-0.5,0.7-0.9,1.2-1.4c0.3-0.3,0.4-0.6,0.7-0.9
		c-0.6,0.5-1.2,1.1-1.7,1.7C171.5,57.8,171.3,58.2,171,58.6z M173.8,55.4c-0.2,0.1-0.3,0.4-0.4,0.6
		C173.7,55.8,173.8,55.7,173.8,55.4z M174.4,54.9L174.4,54.9l-0.3,0.3L174.4,54.9z"/>
	<path class="st0" d="M184.6,64.2h-0.2v-0.1c0.4-0.4,1.2-0.6,1.7-0.8c0.1-0.2,0.4-0.3,0.7-0.3v0.1c0.1-0.5,0.4-0.6,0.7-0.6
		c0.1,0,0.3-0.1,0.5-0.2c0.1-0.1,0.1-0.1,0.1-0.1l-0.1-0.1l-0.9-1.1l-0.7-1.2c-0.2-0.4-0.4-0.7-0.9-1.2c0,0-0.1-0.2-0.1-0.3
		l-0.7-0.5l-0.6-0.8l-0.5-0.9c-0.1,0-0.3-0.1-0.3-0.1c0-0.5-0.1-0.8-0.4-1.2c-0.1-0.1-0.1-0.3-0.1-0.4s0-0.3,0-0.3l0.2-1.3
		c0.1-0.1,0.1-0.2,0.1-0.4c0-0.1,0-0.1-0.1-0.2l0.1-0.4c0.2-0.3,0.4-0.4,0.5-0.5v-0.1c0-0.1,0-0.3,0.1-0.3V51c0.1,0,0.4-0.7,0.6-1
		l0.4-0.4c0.3-0.4,0.9-0.7,1.1-1.2l0.3-0.2c0.4-0.3,0.8-0.8,1.4-1h0.1c0.1-0.3,0.6-0.6,1.2-0.8l0.5-0.4l0.9-0.4
		c0.1-0.2,0.6-0.4,0.8-0.5l0.4-0.1c0.2-0.1,0.4-0.1,0.6-0.1c0.3,0,0.5,0,0.9,0h0.6c0,0,0.3,0.2,0.5,0.4l0.4,0.1h-0.1
		c0.1,0.1,0.1,0.2,0.1,0.4s0,0.2-0.1,0.2s-0.1,0.1-0.1,0.1s0,0.1,0.1,0.1c0.3,0.1,0.5,0.1,0.5,0.4c0,0.1-0.1,0.3-0.4,0.5h0.1
		c0,0-0.1,0.1-0.4,0.3c-0.1,0-0.2,0.1-0.4,0.1h-0.6c-0.1,0-0.1,0-0.2,0.1c-1.2,0.2-2.1,0.6-2.8,1.3c-0.9,0.5-1.7,1.1-2.3,1.6
		c-0.7,0.7-1.4,1.4-1.7,1.9c-0.3,0.6-0.5,1.2-0.5,1.8c0.1,0.3,0.2,0.7,0.5,1.2H186c0.4,0.4,0.7,1,0.9,1.4c0.3,0.4,0.7,0.9,0.9,1.2
		c0.3,0.2,0.4,0.5,0.5,0.6c0.1,0.3,0.4,0.6,0.6,0.7l0.5,0.9c0.1,0.3,0.2,0.5,0.6,0.9c0.1,0.1,0.5,0.1,0.8,0.1
		c0.1-0.1,0.3-0.1,0.4-0.1s0.1,0,0.2,0.1h0.1l0.1-0.1h-0.1c0-0.1,0.1-0.4,0.2-0.5c0.7-0.1,1.4-0.5,2.1-0.8l2.2-0.6l1.2-0.6h0.6
		c0,0.1,0.2,0.1,0.3,0.1s0.1,0,0.2-0.1c0.1,0,0.1-0.1,0.1-0.1c0.1,0,0.4-0.1,0.6-0.1l0.9-0.2h0.3c0.1,0,0.1,0,0.1,0
		c0.1,0,0.1,0,0.2,0.1c0,0,0.1-0.1,0.4-0.1c0.1-0.1,0.3-0.1,0.5-0.1c0.1,0,0.1,0,0.2,0c0.1,0.1,0.1,0.1,0.2,0.1
		c0.2,0.1,0.4,0.1,0.6,0.1c0.1,0,0.2,0,0.4,0c0.1,0,0.1,0.1,0.1,0.1c0,0.1-0.1,0.1-0.1,0.2c-0.3,0.1-0.4,0.2-0.4,0.2
		c-0.1,0-0.3,0.3-0.3,0.3l-1.2,0.4h0.1l-0.9,0.3l-2.7,0.6l0.1-0.1l-0.3,0.1c-0.1,0.2-0.5,0.4-0.6,0.4c-0.7,0.1-1.4,0.4-1.9,0.7v-0.1
		c-0.1,0.1-0.6,0.3-0.6,0.3h-0.2c-0.2,0.1-0.6,0.2-0.7,0.6c-0.3,0-0.6,0.1-0.7,0.2l-0.6,0.2c-0.1,0.1-0.4,0.3-0.4,0.3
		s-0.2,0.2-0.2,0.4v0.1l-0.1-0.1c0.1,0.1,0.1,0.2,0.1,0.3l0.5,1.5c0,0.1,0,0.1,0.1,0.2s0.1,0.3,0.1,0.4c-0.1,0.1-0.1,0.6-0.1,0.9
		c0.1,0.1,0.1,0.4,0.1,0.6c0,0.1,0,0.3-0.1,0.4c-0.1,0.4-0.2,0.6-0.3,0.8c-0.3,0.3-0.4,0.5-0.4,0.8c-0.1,0.1-0.1,0.1-0.1,0.2
		l-0.5,0.5h0.1c-0.3,0.4-0.6,0.7-0.8,0.9c-0.1,0.3-0.3,0.6-0.6,0.9c-0.2,0.2-0.4,0.4-0.4,0.6c-0.4,0.3-0.9,0.6-1.2,0.9l-0.5,0.4
		c-0.6,0.4-1.3,0.6-1.9,0.9c-0.1,0-0.1,0-0.1,0c-0.1,0-0.4,0.1-0.7,0.4l-0.5,0.1c-0.2,0.1-0.6,0.1-0.9,0.3c-0.4,0.4-1.2,0.4-1.9,0.4
		c-0.1,0.1-0.2,0.1-0.4,0.1h-0.3c-0.2,0-0.3,0.1-0.4,0.1c-0.1,0.1-0.4,0.1-0.6,0.1c-0.5,0-1-0.1-1.7-0.1c-0.5-0.1-0.9-0.5-1.4-1
		c-0.4-0.5-0.7-0.9-0.8-1.4l-0.1-0.6c0.1-0.1,0.1-0.3,0.1-0.4s0-0.4,0.6-1.1v-0.1c0-0.2,0-0.4,0.2-0.6c0.1,0,0.2-0.1,0.3-0.3v0.1
		c0-0.1,0.2-0.1,0.2-0.2c0.1-0.1,0.1-0.1,0.1-0.1v-0.4c0.4-0.1,0.5-0.1,0.6-0.2l0.4-0.4l1.4-1.2c0-0.3,0.2-0.4,0.5-0.6
		c0.1,0,0.1,0,0.2-0.1c0.6-0.3,0.9-0.6,1.2-0.7h0.1c0,0,0,0,0.2-0.1l0.5-0.5v0.1c0-0.1,0.1-0.3,0.1-0.4h0.1c0,0.1,0.1,0.1,0.1,0.1
		v-0.1h-0.1c0.4-0.1,0.6-0.2,0.6-0.2c-0.1-0.1-0.2-0.1-0.2-0.2s0.1-0.1,0.4-0.2l-0.1-0.1c0.2,0,0.4,0.1,0.5,0.1s0.4-0.1,0.4-0.3V65
		c0.1,0,0.1-0.1,0.2-0.1c0.1,0,0.1,0,0.4,0.1v-0.2h-0.2L184.6,64.2z M189.1,64.2H189c-0.2,0.2-0.7,0.5-0.9,0.6v-0.1l-0.8,0.4
		c0,0-0.1,0.1-0.2,0.1c-0.1,0-0.2,0.1-0.2,0.1l-0.4,0.4c0,0.1-0.1,0.2-0.5,0.4l0-0.1l-0.8,0.4c-0.5,0.2-1.1,0.5-1.5,0.8l-0.2,0.2
		c-0.3,0.2-0.6,0.3-0.9,0.5c-0.1,0.1-0.4,0.3-0.4,0.3c-0.1,0.1-0.6,0.4-0.6,0.4c-0.3,0.2-0.9,0.8-0.9,0.8c-0.6,0.3-1,0.7-1.3,1
		c0,0-0.5,0.4-0.6,0.6c-0.4,0.4-0.9,0.8-1,1.3c-0.1,0-0.2,0.3-0.2,0.3l-0.1,0.1v0.2c0.1,0.5,0.3,0.8,1,0.8c0.1,0,0.2,0,0.4,0
		c0.1,0,0.1,0,0.2,0c0.3-0.1,0.8-0.1,1-0.1c0.1,0,0.7-0.2,1.1-0.2l1.2-0.4c0.9-0.4,2.2-0.9,3.2-1.4l0.6-0.5c0.3-0.4,0.9-0.6,1.2-1
		c0.1,0,0.2,0,0.3-0.1l0.7-0.9h-0.1c0.1-0.3,0.4-0.5,0.6-0.8c0.2-0.4,0.4-0.9,0.4-1.3l0.1-0.6v-0.3c0-0.1,0.1-0.1,0.1-0.3
		L189.1,64.2z M182.3,65.5L182.3,65.5l0.1,0.1C182.5,65.5,182.4,65.5,182.3,65.5L182.3,65.5z M184.5,64.3L184.5,64.3l-0.4,0.3
		c0.1,0,0.1-0.1,0.2-0.1L184.5,64.3z M198.8,58.3c-0.1,0.1-0.2,0.1-0.2,0.1c-0.1,0-0.1,0-0.1-0.1l0.1,0.1c0.1,0,0.2-0.1,0.4-0.1
		C198.9,58.3,198.8,58.3,198.8,58.3z"/>
	<path class="st0" d="M221.5,50.7v0.2c-0.1,0.3-0.6,0.3-1.1,0.4c-0.3,0.2-0.6,0.5-1.2,0.6c-0.3,0-1.1,0.3-1.2,0.3
		c-0.4,0-0.6,0.1-0.9,0.2h-0.7c-0.2,0-0.4,0-0.5-0.1v0.1c0,0-0.1,0-0.1-0.1c-0.3,0.3-2,0.1-2.4,0.3h-3c-0.1-0.1-0.1,0-0.1,0
		c-0.3,0-0.5,0.1-0.6,0.1h-0.2c-0.1-0.1-0.9-0.4-0.9-0.5c-0.1,0-0.4,0.1-0.6,0.1c-0.1,0-0.1,0.1-0.3,0.1c-0.2,0.2-0.4,0.2-0.6,0.4
		H207c0,0,0,0.1,0.1,0.1c0.2,0.4,1.3,0.4,1.4,0.9c0,0.1,0.1,0.2,0.1,0.3l0.3,0.4c0.1,0.1,0.2,0.4,0.2,0.7c0.3,0.1,0.1,0.4,0.3,0.6
		c0.2,0.1,0.1,0.4,0.2,0.6l0.1,0.1c-0.1,0.1-0.1,0.1-0.1,0.2c0,0.1,0,0.1,0.1,0.2c0,0.1,0,0.1,0,0.1c0,0.1,0,0.2,0,0.3v0.1
		c0,0.1-0.1,0.2-0.1,0.4c0.1,0.1,0.1,0.1,0.1,0.4v0.5c-0.1,0.1-0.1,0.1-0.1,0.1c-0.1,0.3-0.3,0.5-0.3,0.7v0.1c0,0.3-0.1,0.6-0.2,0.8
		c-0.1,0.1-0.1,0.1-0.1,0.4c0,0,0,0.1,0.1,0.1V61l-0.4,0.6c-0.1,0.2-0.2,0.3-0.2,0.5v0.2c0,0.1-0.1,0.3-0.2,0.4l-0.4,0.6
		c-0.1,0.2-0.4,0.3-0.4,0.6c0,0.1-0.1,0.1-0.2,0.3L207,65v0.2c0,0,0.1,0.1,0.1,0.2l-0.3,0.1c-0.2,0.1-0.4,0.4-0.7,0.4
		c-0.1,0.1-0.3,0.2-0.3,0.4c-0.3,0.2-0.4,0.2-0.6,0.3c-0.1,0.1-0.4,0.1-0.6,0.3c-0.1,0.1-0.1,0.1-0.3,0.1s-0.2,0-0.2-0.1H204
		c-0.1,0.1-0.5,0.1-0.6,0.1h-0.5c-0.3,0.1-0.4,0.1-0.6,0.1c-0.2,0-0.2,0-0.3-0.1c-0.1,0-0.2,0-0.4-0.1c-0.2-0.2-0.5-0.1-0.7-0.4
		c-0.2-0.1-0.4-0.2-0.6-0.2c-0.3,0-0.4-0.2-0.6-0.3c-0.1-0.2-0.1-0.3-0.4-0.3c-0.1,0-0.3-0.1-0.4-0.1c-0.1-0.2-0.3-0.4-0.4-0.6
		c-0.6-0.3-0.6-0.8-0.6-1.4c-0.1-0.1-0.1-0.2-0.1-0.3c0-0.4-0.1-0.6-0.1-0.9c0-0.2,0.2-0.3,0.2-0.4s-0.1-0.3-0.1-0.5
		c0-0.1,0-0.3,0-0.4c0-0.1,0-0.1,0-0.1c0-0.3,0.1-0.4,0.2-0.6v-0.6c0-0.1-0.1-0.1-0.1-0.2c0.4-0.7,0.8-1.6,1.1-2.4
		c0.1-0.1,0.4-0.1,0.4-0.1c0.2-0.1,0.4-0.3,0.5-0.4c0.1,0,0.1-0.1,0.1-0.3v-0.1c0-0.1,0-0.1,0.1-0.1c0.4-0.2,0.4-0.7,0.6-1.1
		c0.1-0.1,0.1-0.4,0.4-0.6c0-0.2,0.1-0.4,0.2-0.5c0.1-0.2,0.4-0.6,0.6-0.9c0-0.1,0.1-0.1,0.1-0.1c0.1-0.1,0.2-0.3,0.4-0.3
		c0.2-0.1,0.1-0.2,0.4-0.4l0.4-0.3c0.1-0.1,0.1-0.2,0.2-0.2c0.4-0.2,0.4-0.5,0.7-0.6c0.4-0.1,0.5-0.3,0.7-0.3h0.3
		c0.2-0.4,0.7-0.6,1-0.9h0.2c0.3,0,1,0.3,1.4,0.3h0.4c0.1,0,0.3,0.1,0.4,0.1c0.3,0.3,0.8,0.6,1,0.6h0.1c0.2-0.1,0.4-0.1,0.6-0.1
		c0.5,0.1,2.7,0.1,3.2,0.1h0.2c0.3,0,0.4,0.1,0.6,0.1s0.4,0,0.4-0.1c0.1,0,0.2,0.1,0.3,0.1c0.6,0,1.6-0.1,1.7-0.2h0.1
		c0.1,0,0.3-0.2,0.6-0.2c0.1,0,0.1,0,0.1,0.1c0.1-0.1,0.1-0.1,0.2-0.1c0.1,0,0.1,0,0.4-0.1l2.1-0.5h0.6
		C221.2,50.1,221.5,50.2,221.5,50.7z M207,57.2C207,57.1,207,57.1,207,57.2c0-0.2,0-0.4,0-0.5c-0.3-0.3-0.1-0.5-0.3-0.6
		c-0.1-0.1-0.1-0.4-0.1-0.6c-0.1-0.4-0.2-0.8-0.4-1c-0.3-0.3-0.5-0.6-0.6-0.9c-0.1,0-0.1-0.1-0.2-0.1c-0.1,0-0.1,0.1-0.1,0.1
		c-0.3,0.3-0.4,0.5-0.7,0.6v0.2c-0.2,0.3-0.4,0.6-0.6,1.1c0,0.1,0,0.1-0.1,0.1c-0.3,0.4-0.6,0.6-0.6,0.9l-0.4,1.2
		c-0.1,0-0.2,0.1-0.3,0.3c0,0.2-0.1,0.4-0.4,0.6c0,0-0.2,0-0.2,0.1c0,0.4,0,0.5-0.1,0.8c-0.1,0.5-0.3,1-0.5,1.4l-0.1,0.1
		c0.1,0.2,0.1,0.4,0.1,0.4c0,0.2-0.1,0.6-0.1,0.8c0,0.1,0,0.4,0.1,0.6v0.6c-0.1,0.1-0.1,0.1-0.1,0.1c0.1,0.3,0.1,0.5,0.1,0.7
		c0,0.4,0.4,0.5,0.4,0.6v0.1V65c0,0.1,0.1,0.1,0.2,0.1c0,0,0.1,0.1,0.2,0.1c0.1,0.1,0.1,0.1,0.1,0.1c0.1,0,0.3-0.1,0.4-0.2l0.5-0.2
		c0-0.1,0.1-0.1,0.2-0.1c0.5-0.5,1-0.9,1.4-1.5c0.1-0.1,0.1-0.1,0.1-0.2c0.1-0.3,0.4-0.4,0.4-0.7l0.5-0.8c0-0.2,0.1-0.5,0.4-0.8
		l0.2-0.7c0.1-0.1,0.1-0.1,0.1-0.3V59c0-0.1,0.1-0.2,0.1-0.4l0.2-1v-0.4H207z M202,43.8c-0.1-0.2-0.3-0.5-0.3-0.6s0.1-0.3,0.2-0.4
		c0.1-0.1,0.2-0.3,0.4-0.4L204,41c0.4-0.4,0.9-0.8,1.4-1c0.5-0.3,1-0.6,1.5-0.9c0.4-0.2,0.8-0.3,1.2-0.3l0.3,0.2
		c0.1,0.1,0.2,0.2,0.2,0.4c0,0,0,0-0.1,0c-0.3,0.3-0.5,0.6-0.6,0.8c-0.4,0.7-0.9,1.4-1.4,1.9c-0.6,0.8-1.4,1.5-2.1,2.3
		c-0.1,0.1-0.4,0.2-0.4,0.4c0,0,0,0.1,0.1,0.1C204,45,204,45,204,45.1c-0.1,0.1-0.2,0.1-0.3,0.1c-0.3,0-0.4-0.1-0.6-0.2
		c0-0.1-0.1-0.1-0.3-0.1C202.5,44.5,202.1,44.2,202,43.8z M207.3,39.5L207.3,39.5l-0.1-0.1c-0.3,0.4-0.6,0.6-0.8,1.1
		c-0.1,0.4-0.4,0.6-0.6,0.9v0.2l0.1-0.1c0.1-0.3,0.4-0.6,0.6-0.9C206.8,40.1,207.1,39.8,207.3,39.5z"/>
	<path class="st0" d="M219.1,64.2h-0.2v-0.1c0.4-0.4,1.2-0.6,1.7-0.8c0.1-0.2,0.4-0.3,0.7-0.3v0.1c0.1-0.5,0.4-0.6,0.7-0.6
		c0.1,0,0.3-0.1,0.5-0.2c0.1-0.1,0.1-0.1,0.1-0.1l-0.1-0.1l-0.9-1.1l-0.7-1.2c-0.2-0.4-0.4-0.7-0.9-1.2c0,0-0.1-0.2-0.1-0.3
		l-0.7-0.5l-0.6-0.8l-0.5-0.9c-0.1,0-0.3-0.1-0.3-0.1c0-0.5-0.1-0.8-0.4-1.2c-0.1-0.1-0.1-0.3-0.1-0.4s0-0.3,0-0.3l0.2-1.3
		c0.1-0.1,0.1-0.2,0.1-0.4c0-0.1,0-0.1-0.1-0.2l0.1-0.4c0.2-0.3,0.4-0.4,0.5-0.5v-0.1c0-0.1,0-0.3,0.1-0.3V51c0.1,0,0.4-0.7,0.6-1
		l0.4-0.4c0.3-0.4,0.9-0.7,1.1-1.2l0.3-0.2c0.4-0.3,0.8-0.8,1.4-1h0.1c0.1-0.3,0.6-0.6,1.2-0.8l0.5-0.4l0.9-0.4
		c0.1-0.2,0.6-0.4,0.8-0.5l0.4-0.1c0.2-0.1,0.4-0.1,0.6-0.1c0.3,0,0.5,0,0.9,0h0.6c0,0,0.3,0.2,0.5,0.4l0.4,0.1h-0.1
		c0.1,0.1,0.1,0.2,0.1,0.4s0,0.2-0.1,0.2s-0.1,0.1-0.1,0.1s0,0.1,0.1,0.1c0.3,0.1,0.5,0.1,0.5,0.4c0,0.1-0.1,0.3-0.4,0.5h0.1
		c0,0-0.1,0.1-0.4,0.3c-0.1,0-0.2,0.1-0.4,0.1h-0.6c-0.1,0-0.1,0-0.2,0.1c-1.2,0.2-2.1,0.6-2.8,1.3c-0.9,0.5-1.7,1.1-2.3,1.6
		c-0.7,0.7-1.4,1.4-1.7,1.9c-0.3,0.6-0.5,1.2-0.5,1.8c0.1,0.3,0.2,0.7,0.5,1.2h-0.1c0.4,0.4,0.7,1,0.9,1.4c0.3,0.4,0.7,0.9,0.9,1.2
		c0.3,0.2,0.4,0.5,0.5,0.6c0.1,0.3,0.4,0.6,0.6,0.7l0.5,0.9c0.1,0.3,0.2,0.5,0.6,0.9c0.1,0.1,0.5,0.1,0.8,0.1
		c0.1-0.1,0.3-0.1,0.4-0.1s0.1,0,0.2,0.1h0.1l0.1-0.1H226c0-0.1,0.1-0.4,0.2-0.5c0.7-0.1,1.4-0.5,2.1-0.8l2.2-0.6l1.2-0.6h0.6
		c0,0.1,0.2,0.1,0.3,0.1s0.1,0,0.2-0.1c0.1,0,0.1-0.1,0.1-0.1c0.1,0,0.4-0.1,0.6-0.1l0.9-0.2h0.3c0.1,0,0.1,0,0.1,0
		c0.1,0,0.1,0,0.2,0.1c0,0,0.1-0.1,0.4-0.1c0.1-0.1,0.3-0.1,0.5-0.1c0.1,0,0.1,0,0.2,0c0.1,0.1,0.1,0.1,0.2,0.1
		c0.2,0.1,0.4,0.1,0.6,0.1c0.1,0,0.2,0,0.4,0c0.1,0,0.1,0.1,0.1,0.1c0,0.1-0.1,0.1-0.1,0.2c-0.3,0.1-0.4,0.2-0.4,0.2
		c-0.1,0-0.3,0.3-0.3,0.3l-1.2,0.4h0.1l-0.9,0.3l-2.7,0.6l0.1-0.1l-0.3,0.1c-0.1,0.2-0.5,0.4-0.6,0.4c-0.7,0.1-1.4,0.4-1.9,0.7v-0.1
		c-0.1,0.1-0.6,0.3-0.6,0.3h-0.2c-0.2,0.1-0.6,0.2-0.7,0.6c-0.3,0-0.6,0.1-0.7,0.2l-0.6,0.2c-0.1,0.1-0.4,0.3-0.4,0.3
		s-0.2,0.2-0.2,0.4v0.1l-0.1-0.1c0.1,0.1,0.1,0.2,0.1,0.3l0.5,1.5c0,0.1,0,0.1,0.1,0.2s0.1,0.3,0.1,0.4c-0.1,0.1-0.1,0.6-0.1,0.9
		c0.1,0.1,0.1,0.4,0.1,0.6c0,0.1,0,0.3-0.1,0.4c-0.1,0.4-0.2,0.6-0.3,0.8c-0.3,0.3-0.4,0.5-0.4,0.8c-0.1,0.1-0.1,0.1-0.1,0.2
		l-0.5,0.5h0.1c-0.3,0.4-0.6,0.7-0.8,0.9c-0.1,0.3-0.3,0.6-0.6,0.9c-0.2,0.2-0.4,0.4-0.4,0.6c-0.4,0.3-0.9,0.6-1.2,0.9l-0.5,0.4
		c-0.6,0.4-1.3,0.6-1.9,0.9c-0.1,0-0.1,0-0.1,0c-0.1,0-0.4,0.1-0.7,0.4l-0.5,0.1c-0.2,0.1-0.6,0.1-0.9,0.3c-0.4,0.4-1.2,0.4-1.9,0.4
		c-0.1,0.1-0.2,0.1-0.4,0.1H215c-0.2,0-0.3,0.1-0.4,0.1c-0.1,0.1-0.4,0.1-0.6,0.1c-0.5,0-1-0.1-1.7-0.1c-0.5-0.1-0.9-0.5-1.4-1
		c-0.4-0.5-0.7-0.9-0.8-1.4L210,73c0.1-0.1,0.1-0.3,0.1-0.4s0-0.4,0.6-1.1v-0.1c0-0.2,0-0.4,0.2-0.6c0.1,0,0.2-0.1,0.3-0.3v0.1
		c0-0.1,0.2-0.1,0.2-0.2c0.1-0.1,0.1-0.1,0.1-0.1v-0.4c0.4-0.1,0.5-0.1,0.6-0.2l0.4-0.4l1.4-1.2c0-0.3,0.2-0.4,0.5-0.6
		c0.1,0,0.1,0,0.2-0.1c0.6-0.3,0.9-0.6,1.2-0.7h0.1c0,0,0,0,0.2-0.1l0.5-0.5v0.1c0-0.1,0.1-0.3,0.1-0.4h0.1c0,0.1,0.1,0.1,0.1,0.1
		v-0.1h-0.1c0.4-0.1,0.6-0.2,0.6-0.2c-0.1-0.1-0.2-0.1-0.2-0.2s0.1-0.1,0.4-0.2l-0.1-0.1c0.2,0,0.4,0.1,0.5,0.1s0.4-0.1,0.4-0.3V65
		c0.1,0,0.1-0.1,0.2-0.1c0.1,0,0.1,0,0.4,0.1v-0.2h-0.2L219.1,64.2z M223.5,64.2h-0.1c-0.2,0.2-0.7,0.5-0.9,0.6v-0.1l-0.8,0.4
		c0,0-0.1,0.1-0.2,0.1c-0.1,0-0.2,0.1-0.2,0.1l-0.4,0.4c0,0.1-0.1,0.2-0.5,0.4l0.1-0.1l-0.8,0.4c-0.5,0.2-1.1,0.5-1.5,0.8l-0.2,0.2
		c-0.3,0.2-0.6,0.3-0.9,0.5c-0.1,0.1-0.4,0.3-0.4,0.3c-0.1,0.1-0.6,0.4-0.6,0.4c-0.3,0.2-0.9,0.8-0.9,0.8c-0.6,0.3-1,0.7-1.3,1
		c0,0-0.5,0.4-0.6,0.6c-0.4,0.4-0.9,0.8-1,1.3c-0.1,0-0.2,0.3-0.2,0.3l-0.1,0.1v0.2c0.1,0.5,0.3,0.8,1,0.8c0.1,0,0.2,0,0.4,0
		c0.1,0,0.1,0,0.2,0c0.3-0.1,0.8-0.1,1-0.1c0.1,0,0.7-0.2,1.1-0.2l1.2-0.4c0.9-0.4,2.2-0.9,3.2-1.4l0.6-0.5c0.3-0.4,0.9-0.6,1.2-1
		c0.1,0,0.2,0,0.3-0.1l0.7-0.9h-0.1c0.1-0.3,0.4-0.5,0.6-0.8c0.2-0.4,0.4-0.9,0.4-1.3l0.1-0.6v-0.3c0-0.1,0.1-0.1,0.1-0.3
		L223.5,64.2z M216.8,65.5L216.8,65.5l0.1,0.1C216.9,65.5,216.8,65.5,216.8,65.5L216.8,65.5z M218.9,64.3L218.9,64.3l-0.4,0.3
		c0.1,0,0.1-0.1,0.2-0.1L218.9,64.3z M233.2,58.3c-0.1,0.1-0.2,0.1-0.2,0.1c-0.1,0-0.1,0-0.1-0.1l0.1,0.1c0.1,0,0.2-0.1,0.4-0.1
		C233.3,58.3,233.2,58.3,233.2,58.3z"/>
	<path class="st0" d="M265.8,77.1c0.2,0,0.4,0,0.6,0.1l2.1,0.4c0.4,0,0.8,0,1,0.1c0.1,0.1,0.2,0.1,0.2,0.1c0.2,0.4,0.5,0.4,0.8,0.5
		s0.8,0.2,1,0.4c0.1,0.1,0.1,0.1,0.1,0.2v0.4c0,0.1,0.1,0.1,0.1,0.1c0,0.1-0.3,0.3-0.4,0.3H271c-0.3-0.1-0.6-0.2-1.1-0.4
		c-0.1,0-0.4-0.1-0.5-0.1h-0.3c-0.6,0-1.2-0.1-1.8-0.2c-1.2,0.1-1.9,0.1-3,0.1c-0.2,0.1-0.3,0.1-0.4,0.1h-0.2
		c-0.5,0.1-0.7,0.1-1.2,0.2c-0.1-0.1-0.1-0.1-0.2-0.1s-0.2,0-0.3,0.1c-0.1,0.1-0.2,0.1-0.4,0.1s-0.4,0-0.6-0.1
		c0.3-0.1,0.4-0.1,0.4-0.1c0-0.1-6,1.1-6,1.1l-1,0.1c-0.2,0.1-0.6,0.1-0.9,0.1h-0.4c-0.1,0-0.1,0-0.2,0.1L252,81
		c-0.1,0-0.1,0-0.1-0.1c-0.2,0.4-0.9,0.4-1.4,0.4c-0.6,0-1.2,0.3-1.7,0.3c-0.2,0.1-0.4,0.1-0.4,0.1l-0.6,0.1c-0.6,0-1.2,0-1.7,0.2
		c-0.2,0-0.3-0.1-0.4-0.1c-0.5,0-0.9,0.1-1.4,0.3h-0.4c-0.4,0-0.7,0.1-0.9,0.1c-0.3,0.1-0.5,0.2-0.8,0.2c-0.2,0-0.4-0.1-0.6-0.1
		c-0.4,0.1-0.9,0.1-1.2,0.3l-0.3,0.1c-0.4,0.1-0.6,0.1-1,0.1H239c-0.2,0-0.4-0.3-0.7-0.3l-0.1-0.1c-0.3-0.6-0.5-0.9-0.7-1.1
		c-0.1-0.1-0.1-0.1-0.1-0.2s0.1-0.2,0.1-0.3c0.2-0.4,0.4-0.6,0.6-0.7c0.1-0.3,0.5-0.4,0.9-0.5c1.1-0.1,2.1-0.3,3.3-0.3
		c0.4-0.1,0.6-0.2,0.9-0.2c0.9-0.4,2-0.1,2.7-0.4c0.6-0.1,1.4-0.1,1.9-0.3c0.6-0.1,1.4-0.4,2.1-0.4c1.4-0.1,2.9-0.4,4.3-0.5
		c0.1-0.1,0.2-0.1,0.4-0.1h0.6c-0.4-0.1,3-0.6,5-0.6c0.7,0,1.3,0.1,1.4,0.2c0.1,0,0.1-0.1,0.3-0.1c0.1,0,0.3,0.1,0.4,0.1
		c0.4,0,0.7-0.1,1.2-0.2c0.3,0,0.7-0.1,1.2-0.1h1.1V77.1z M272.5,17.4v0.4c-0.3,0.1-0.3,0.6-0.4,0.8c0,0.6-0.2,1-0.4,1.5
		c-0.2,0.3-0.3,0.6-0.4,0.9l-0.2,0.4c-0.2,0.6-0.6,1.2-0.7,1.9c0,0.1-0.2,0.3-0.3,0.4l-0.9,2.2c-0.1,0.4-0.4,0.7-0.6,1.1
		c-0.2,0.3-0.3,0.7-0.5,1c-0.1,0.5-0.3,0.9-0.5,1.4c-0.1,0.5-0.3,1-0.4,1.4c-0.5,1.2-0.8,2.3-1.4,3.5c0,0.6-0.4,1-0.6,1.4
		c0,0.1,0,0.2-0.1,0.4c0,0.3-0.1,0.6-0.2,0.8c-0.3,0.4-0.5,0.9-0.5,1.4c-0.1,0-0.1,0.1-0.1,0.2c-0.4,0.7-0.7,1.7-1,2.5
		c-0.1,0.4-0.2,0.8-0.4,1.1c-0.2,0.8-1.4,4.4-1.6,4.3l-0.3,1c-0.1,0.1-0.1,0.3-0.1,0.5v0.3c0,0.3-0.2,0.5-0.3,0.8
		c-0.2,0.7-0.4,1.4-0.6,2.1c-0.3,0.4-0.4,0.9-0.6,1.2c-0.1,0.1-0.1,0.3-0.1,0.5c-0.1,0.4-0.2,0.6-0.4,0.9c0.2-0.1-1.7,5.3-1.9,5.6
		c-0.1,0-0.2,0.2-0.4,0.3c-0.1,0.1-0.1,0.1-0.1,0.2c0.2,0.1,0.2,0.2,0.2,0.3s-0.1,0.4-0.3,0.5c0,0-0.1,0-0.1,0.1
		c0,0.2,0,0.4-0.1,0.6c-0.1,0.3-0.4,0.4-0.4,0.6l-0.1,0.6v0.3c0,0.1,0,0.2-0.1,0.2c-0.2,0.2-0.2,0.5-0.2,0.9c0,0.2-0.1,0.4-0.2,0.6
		c-0.1,0.2-0.3,0.6-0.3,0.9v0.1c0,0.1,0.1,0.1,0.1,0.2c0,0.3-0.1,0.6-0.3,0.7c0,0.3-0.2,0.5-0.3,0.7c0,0.1-0.1,0.2-0.2,0.3
		c-0.1,0-0.1,0-0.1,0.1s0.1,0.2,0.1,0.3V68c0,0.4,0,0.6-0.1,0.8c0,0.1,0,0.1-0.1,0.2c-0.2,0.2-0.3,0.4-0.3,0.6s0.1,0.4,0.1,0.6
		l-0.7,3c0,0.4,0,0.9-0.2,1.3c-0.1,0.2,0,0.6-0.1,0.9v1.2c-0.1,0.1-0.1,0.1-0.1,0.3c0,0.2,0.1,0.6,0.1,0.9c-0.1,0.1-0.1,0.1-0.1,0.1
		c-0.1,0-0.1-0.1-0.2-0.1c0,0-0.1,0-0.1-0.1h-0.1c-0.1-0.1-0.3-0.1-0.4-0.1h-0.2c-0.4,0-0.6-0.1-0.7-0.5c-0.3-0.2-0.4-0.4-0.4-0.6
		v-0.2c0-0.1,0.1-0.2,0.1-0.4s-0.1-0.2-0.1-0.4c-0.1-0.1-0.1-0.1-0.1-0.2c0-0.2,0.2-0.4,0.2-0.6c0-0.1-0.1-0.1-0.1-0.1
		c-0.1-0.2,0-0.4-0.2-0.6c-0.1-0.1-0.1-0.3-0.1-0.4c0.1-0.3,0.2-0.5,0.2-0.7v-0.3c0-0.3,0.1-0.5,0.1-0.7c0-0.1,0.1-0.1,0.1-0.1
		c0-0.1-0.1-0.1-0.2-0.2c0-0.1-0.1-0.2-0.1-0.3c0-0.1,0.1-0.1,0.3-0.2c0.1-0.1,0.1-0.1,0.1-0.1c0-0.1-0.1-0.1-0.1-0.1
		c-0.1-0.1-0.1-0.1-0.1-0.3c0-0.1,0-0.2,0.1-0.3c0.1-0.1,0.1-0.2,0.1-0.3s0-0.1-0.1-0.2c0-0.2,0.1-0.5,0.1-0.7
		c0.1-0.3,0.1-0.6,0.1-0.9V68c0-0.1,0-0.2,0.1-0.3c0.3-0.6,0.2-1.3,0.4-1.8c0.1-0.3,0-0.6,0.1-0.7c0.1,0,0.1-0.1,0.1-0.1
		c0-0.1,0.1-0.1,0.1-0.1c0-0.4,0.4-0.9,0.4-1.4c0.1-0.4,0.2-0.8,0.4-1.2c0.1-0.1,0.1-0.1,0.1-0.2v-0.4c0.1-0.2,0.2-0.4,0.2-0.6v-0.1
		c0-0.4,0.1-0.6,0.4-0.9c0-0.1,0.1-0.2,0.1-0.4c0-0.1,0.1-0.1,0.1-0.1c0-0.1-0.1-0.1-0.1-0.1c0-0.1,0-0.3,0.1-0.4l0.3-0.4
		c0.1-0.6,1.2-4.2,1.7-4.4v-0.1c0-0.1-0.1-0.2-0.1-0.3s0-0.2,0.1-0.3c0.2-0.4,0.4-1,0.4-1.5c0-0.2,0.2-0.4,0.2-0.6
		c0-0.1,0.1-0.2,0.1-0.4c0-0.5,0.2-1,0.4-1.4c0.1-0.4,0.4-0.9,0.5-1.3c0-0.4,0.1-0.4,0.1-0.7c0-0.1,0.1-0.2,0.1-0.2
		c0.2-0.4,0.2-0.7,0.2-1.1c-0.1,0.2,0.9-2.5,0.9-3.2v-0.1l0.3-0.4c0.2-0.4,0.3-0.7,0.3-1.2s0.1-0.9,0.4-1.2c0.1-0.4,0.4-0.8,0.4-1.2
		c0,0,0-0.1,0.1-0.1c0.3-0.6,0.3-1.4,0.6-1.9c0.2-0.6,0.5-1.2,0.6-1.8l0.3-0.4c0.1-0.1,0.1-0.3,0.1-0.4c0-0.4,0.1-0.7,0.2-1
		c0.3-0.2,0.4-0.6,0.4-1.1c0.1-0.4,0.3-0.7,0.4-0.9c0.4-0.6,0.5-1.3,0.8-1.8c0.1-0.4,0.1-0.9,0.3-1.2c0.2-0.1,0.3-0.6,0.5-1.1
		c0.1-0.6,0.6-1.2,0.9-1.9c0-0.1,0.1-0.4,0.1-0.6c0-0.3,0.2-0.7,0.4-1c0.2-0.6,0.6-1.4,0.9-2.1c0-0.1,0-0.1,0.1-0.1
		c0.2-0.2,0.3-0.5,0.3-0.8c0.6-1,0.9-2.1,1.2-3v-0.2c0-0.1-0.1-0.1-0.2-0.2c-0.1,0-0.1-0.1-0.1-0.1c-0.1,0-0.1,0.1-0.1,0.1
		c-0.9,0.3-1.7,0.5-2.5,0.5h-0.3c-0.1,0-0.1,0-0.2,0.1c-0.3,0.4-0.9,0.4-1.6,0.5c-0.5,0.1-1.1,0.1-1.5,0.4c0,0.1-0.1,0.1-0.1,0.1
		c-0.8,0.2-1.4,0.3-2,0.5c-0.6,0.1-1.3,0.4-2,0.6L257,20c-0.9,0.3-1.8,0.5-2.6,0.9c-0.6,0.1-1.4,0.3-2,0.6l-2,0.5
		c-0.4,0.1-0.8,0.1-1,0.5c-0.3,0.1-0.7,0.2-1.1,0.4c-0.4,0-0.7,0.1-1.2,0.2c-0.5,0.2-1.1,0.3-1.4,0.6c-0.4,0.1-0.9,0.2-1.3,0.4
		c-0.9,0.4-2,0.9-2.8,1.4c-0.4,0.2-0.8,0.4-1.2,0.7c-0.1,0.1-0.3,0.1-0.5,0.3c-0.1,0-0.2,0.1-0.4,0.3c-0.1,0.1-0.2,0.1-0.4,0.1
		c-0.1,0-0.1,0-0.2-0.1c-0.4-0.1-0.6-0.3-0.8-0.7c-0.2-0.2-0.4-0.4-0.4-0.7c0-0.1-0.1-0.3-0.2-0.5v-0.2c0.2-0.4,0.6-0.8,0.9-1.1
		c0.1-0.2,0.5-0.2,0.8-0.4l0.9-0.6l3.6-1.6c0.6-0.2,1.2-0.3,1.4-0.5c0.1-0.1,0.4-0.1,0.6-0.1c0.5-0.1,0.9-0.3,1.4-0.4
		c0.6-0.3,1.1-0.4,1.7-0.6c0.4-0.1,1-0.1,1.4-0.5c0.4,0,0.9-0.1,1.5-0.4c0.9-0.4,2.1-0.6,3-0.9c1.4-0.4,2.9-0.7,4.2-1.2
		c0.8-0.1,1.4-0.4,2.2-0.6s1.5-0.4,2.4-0.5c0.7-0.1,1.4-0.4,2.1-0.4c0.1-0.1,0.3-0.1,0.4-0.1h0.3c0.1,0,0.1-0.1,0.1-0.1
		c0.5-0.3,1.2-0.4,1.7-0.4c0.3-0.1,0.5-0.1,0.8-0.2c0.4-0.1,0.8-0.2,1.2-0.3c0.4,0,0.6-0.1,1.1-0.1c0.1-0.1,0.2-0.1,0.4-0.1
		s0.4,0.1,0.6,0.1h0.2c0.2,0,0.6,0,1-0.1l3.8-0.6c0.4,0,0.8-0.1,1.2-0.1h-0.2c0-0.1,3.2-0.4,4.5-0.4c0.2,0,0.5,0,0.6,0.1
		c1-0.1,2.8-0.2,4.2-0.2c1,0,1.8,0.1,2.4,0.3c0.1,0.1,0.3,0.1,0.4,0.1c0.5,0.1,1,0.1,1.5,0.3c0.3,0,0.6,0.1,0.9,0.3l1.2,0.4
		c0.2,0.1,0.4,0.3,0.6,0.4c0.2,0.1,0.2,0.3,0.2,0.5v0.1c0,0.1,0,0.1,0.1,0.2c0,0.1,0.1,0.1,0.1,0.1c-0.1,0.1-0.1,0.2-0.4,0.3
		c-0.1,0-0.2-0.1-0.3-0.1l-0.4-0.2c-0.2-0.1-0.4-0.2-0.6-0.2c-0.4,0-0.9-0.1-1.5-0.1c-0.2,0-0.5,0-0.6-0.1c-0.1,0-0.1-0.1-0.2-0.1
		s-0.1,0.1-0.1,0.1h-0.2c-0.1,0-0.4,0-0.5-0.1l-2-0.3c0,0.1-3.2,0.2-3.7,0.6V15c-0.1,0-0.1,0-0.3-0.1c-1.2,0.1-4.8,0.4-4.8,0.5
		c-0.3,0.1-0.5,0.2-0.9,0.2c-0.2,0-0.4,0.1-0.6,0.1c-0.2,0.1-0.4,0.1-0.6,0.1c-0.1,0-0.2-0.1-0.4-0.1h-0.3c-0.2,0-0.5,0-0.5,0.1
		c-0.2,0.1-0.5,0.1-0.8,0.1c-0.5,0.1-1.1,0.5-1.7,0.5c-0.1,0-0.4,0-0.5,0.1s-0.2,0.2-0.2,0.4c-0.1,0.1-0.1,0.1-0.1,0.3
		S272.4,17.4,272.5,17.4z"/>
	<path class="st0" d="M294.7,16.4c0,0.1,0,0.1-0.1,0.1l0.1,0.3c0.4,0.3,0.2,0.6,0.5,0.9c0,0,0,0.1-0.1,0.1c0,0.1,0.1,0.2,0.1,0.4
		c-0.1,0.1-0.1,0.3-0.1,0.4V19c0,0.1,0,0.2-0.1,0.3c0,0.1,0.1,0.1,0.1,0.1c0,0.1-0.1,0.1-0.1,0.4c0,0.1,0,0.3,0.1,0.4
		c-0.1,0-0.1,0.1-0.1,0.2v0.2c0,0.1-0.1,0.3-0.4,0.4v0.9c0,0,0.1,0,0.1,0.1c0,0.2-0.4,0.6-0.4,0.9v0.6c0,0.4-0.2,0.6-0.3,1
		c0,0.1,0.1,0.1,0.1,0.1c0,0.1-0.1,0.3-0.1,0.4l0,0l-0.1,0.3c0,0.1,0.1,0.2,0.1,0.3v0.1c-0.1,0-0.1-0.1-0.1-0.1
		c-0.1,0.1-0.1,0.3-0.1,0.4l-0.1,0.3c-0.2,0.1-0.1,0.3-0.2,0.5v0.4c0,0.1,0,0.2-0.1,0.4v0.1c0-0.1-0.4,0.6-0.4,1.1V29
		c-0.4,0.6-0.4,1.5-0.8,2.2v0.1c0,0.1-0.1,0.1-0.1,0.1v0.1c0,0.1-0.1,0.1-0.1,0.1c0.1-0.1-0.4,1.7-0.9,1.9v0.4
		c-0.1,0.1-0.4,0.6-0.4,0.6s0.1,0,0.1,0.1c-0.3,0.2-0.3,0.4-0.4,0.5c0,0.1,0.1,0.1,0.1,0.1c0,0.1-0.1,0.1-0.1,0.1v0.1
		c0,0.1-0.1,0.4-0.1,0.5c0.1-0.1-1.2,0.9-1.2,2.7v0.2c-0.3,0.1-1.2,1.7-1.5,2.8c0.1-0.1,0.1-0.1,0.1-0.1c0,0.1-1.5,1.5-1.5,2.5
		l0.1,0.2c0-0.3-0.7,1.4-0.9,1.5c0.1,0,0.1,0.1,0.1,0.1c0,0.1-1.3,0.8-1.3,1.9L284,48c-0.1,0.2-0.3,0.4-0.3,0.6v0.1
		c0,0.4-1.4,1.6-1.4,2l0.1-0.1c0,0-1.8,1.5-1.8,2.4v0.1c-0.8,0.6-1.4,1.7-1.4,1.8l-0.5,0.4c0.2,0-0.8,0.9-0.8,0.9l-0.5,0.8
		c-0.1,0.1-2.6,2.4-2.6,3.2c0,0,0,0.2,0.1,0.4c-0.1,0.1-0.1,0.1-0.1,0.2c0,0.1,0.1,0.2,0.1,0.4c0,0.1,0,0.1-0.1,0.2
		c0.2,0.4,0.3,0.9,0.3,1.1v0.1c-0.1,0-0.1,0.1-0.1,0.2c0,0.1,0.1,0.4,0.1,0.5v0.1c0,0.1-0.1,0.1-0.1,0.1c0,0.1,0.4,0.5,0.4,0.8
		c0,0.1-0.1,0.2-0.2,0.4v0.2c0.4,0.1,0.5,0.6,0.6,0.6v0.3c0,0.2,0.6,1.3,1.2,1.8v0.1c0,0.1-0.4,0.4-0.4,0.5v0.1
		c0,0.1,0.1,0.1,0.5,0.4v0.1c0,0,0,0.2,1.1,0.9c-0.1,0,0.4-0.1,1.6,0.9v0.1c0,0.1,0,0.1,0.1,0.1s0.4-0.1,0.7-0.1
		c0.4,0,0.9,0.1,1.4,0.5h0.9c0.3-0.1,0.4-0.1,0.6-0.1h0.1c0.4-0.1,0.6-0.1,0.6-0.2c-0.3,0.1,1.9-0.5,4.3-2.7l0.6-0.6
		c0.4-0.1,0.5-0.3,0.6-0.5c0.1-0.1,0.2-0.1,0.2-0.1v-0.1c0,0,1.3-0.6,1.3-1.1c0,0,1.6-0.8,2-1.9l0.4-0.4c0.2-0.1,0.1-0.2,0.4-0.4
		h0.1c0-0.1,0.8-1.2,1.2-1.6v-0.1c0.4,0,0.6-0.6,0.9-0.9l0.4-0.4c0.2-0.1,0.2-0.1,0.3-0.3l0.3-0.4c0.2-0.3,0.4-0.4,0.5-0.5
		c-0.1,0-0.1-0.1-0.1-0.1h0.1c0,0,0.1,0,0.1,0.1V59c-0.1,0-0.1,0.1-0.1,0.2l-0.1,0.4c-0.1,0-0.1,0-0.1,0v0.1c0,0.1-0.2,0.4-0.9,1.1
		h-0.1L297,61l-0.2,0.1c-1.1,1-0.9,1.7-1.5,2.1v0.1c0,0.5-0.6,0.7-0.6,0.9l-0.3,0.2c-0.3,0.1-0.4,0.3-1.4,1.7
		c-0.4,0-1.2,1.2-1.5,1.3v0.1c0,0.3-1.5,1.3-1.7,1.6l-1.3,0.9c-0.4,0.4-0.6,0.4-0.9,0.7c-0.2,0.1-2.2,0.5-3.6,1.5h-0.7
		c-0.6,0.2-1,0.4-1.3,0.4c-0.1,0-0.2-0.1-0.4-0.1h-0.4c-0.1,0-0.4,0-0.8,0.1h-0.3c-1.1,0-1.2,0-3.4-0.9l-0.1-0.1
		c0-0.1,0.3-0.1,0.3-0.1v-0.1c-0.3-0.2-1.9-0.1-2.7-1.4v-0.1l-0.1,0.1c-0.3-0.4-1.4-1.2-1.4-1.9l-0.2-0.2c-0.2-0.4-0.9-0.6-0.9-1
		v-0.1l-0.1-0.1c0-0.2-0.4-0.4-0.4-0.5v-0.1c0-1.1,0-2-0.3-3.2v-1.4c0,0-0.1,0-0.1-0.1V61c0.1-0.1,0.1-0.2,0.1-0.3
		c0,0-0.4-0.9-0.4-1.1c0.1-0.1,0.1-0.2,0.1-0.4V59c0-0.1-0.1-0.6-0.3-0.6l0.1-0.1c0-0.1,0-0.1,0-0.1c0.1-0.1,0.1-0.4,0.1-0.6
		c0-0.1,0-0.1-0.1-0.2V57c0-0.1,0.1-0.2,0.1-0.3s0-0.1-0.1-0.1c0.1-0.4,0.2-1.2,0.2-1.3c-0.1-0.1-0.1-0.2-0.1-0.3v-0.1
		c0,0,0.1-0.9,0.3-1.1h0.1c-0.1-0.1-0.2-0.2-0.2-0.3s0.1-0.2,0.1-0.4l0.2-0.6c0-0.1,0.1-0.1,0.1-0.1s0-0.1-0.1-0.1
		c0-0.1,0-0.3,0.1-0.4v-0.1c0-0.1,0-0.2,0.1-0.3l-0.1-0.3c0-0.1,0.4-0.7,0.4-0.9l0.1-0.3c0-0.1,0-0.3,0.1-0.4l0.1-0.5
		c-0.1,0,0.2-0.4,0.2-0.5v-0.1c0-0.3,0.1-0.6,0.1-1.1v-0.1l0.1-0.1l-0.1-0.1c0.1-0.1,0.1-0.4,0.2-0.4c-0.1,0-0.1-0.1-0.1-0.1
		c0-0.1,0.1-0.1,0.1-0.2l0.4-0.9c0.3-0.5,0.1-1.7,0.9-3v-0.1c0-0.1,0-0.1,0.1-0.1c-0.1-0.1-0.1-0.1-0.1-0.2c0-1.2,0.7-0.8,0.7-1.6
		v-0.1c0.2-0.1,0.2-0.4,0.4-0.6v-0.1c0,0,0.1-0.1,0.2-0.1v-0.2h0.2c-0.1,0-0.1,0.1-0.1,0.2h0.1l-0.1,0.6c0,0.1,0.1,0.1,0.3,0.3
		l0.2-0.1c0.1-0.2,0.1-0.4,0.1-0.6v-0.1c0.1-0.3,0.1-0.6,0.5-0.9v-0.1c0.1-0.1,0.1-0.2,0.1-0.4h-0.4c-0.4,0-0.4,0.9-0.7,0.9h-0.1
		c0-0.1-0.1-0.1-0.1-0.1c0.2-0.4,0.5-1.6,0.9-2.2c0,0-0.1-0.1-0.1-0.2v-0.3c0.1-0.1,0.4-0.1,0.4-0.3V36c-0.1,0-0.1,0-0.1-0.1
		c0.3-0.3,0.6-1.1,0.6-1.2c0-0.1-0.1-0.1-0.1-0.1c0-0.1,0.2-0.2,0.2-0.4V34c0,0,0.1-0.4,0.3-0.4h0.2c0.1,0,0.1,0,0.1-0.1
		c-0.2-0.1-0.3-0.1-0.3-0.1v-0.1c0.2-0.1,0.2-0.1,0.2-0.2c-0.2,0-0.2,0-0.2-0.1c0.2-0.4,0.6-0.9,0.6-1.2c-0.1-0.1-0.1-0.1-0.1-0.1
		c0.1-0.1,0.5-0.5,0.5-0.7c-0.1-0.1-0.1-0.1-0.1-0.1c0-0.2,0.6-0.2,0.6-0.7c0-0.1-0.2-0.1-0.2-0.3c0,0.1,0.9-0.9,0.9-1.9v-0.1
		c0-0.1,0.1-0.1,0.1-0.1s0-0.1-0.1-0.1c0.3-0.5,0.1-0.4,0.4-0.8s0.3-0.4,0.3-0.4v-0.1v-0.2c0,0.1,0,0.1,0,0.1c0.1,0,0.6-1.8,1.2-2.2
		c0-0.1,0.3-0.1,0.3-0.2c0,0,0-0.1-0.1-0.1l0.1-0.3c0-0.1,0.1-0.3,0.1-0.4s-0.1-0.1-0.1-0.1c0.1-0.1,0.1-0.2,0.1-0.3l0.5-0.6
		c0.1,0,0.1-0.1,0.2-0.1v-0.1c0.2-0.4,0.4-1.2,2-3.3l0.4-0.6c0.2-0.1,0.4-0.4,0.8-0.7c-0.1,0,1.1-1.5,1.7-1.5l1.2-0.6
		c0.2-0.1,0.4-0.1,0.6-0.1h0.2c0.2-0.1,1.5-0.1,1.8-0.1h0.7c0.4,0,0.9,0.1,1,0.1h0.1c0.7,0,1.1,0.7,1.2,0.9
		C294.5,16,294.7,16.3,294.7,16.4z M272.1,52.8L272.1,52.8c0-0.1,0.1-0.1,0.1-0.2c0-0.2,0-0.3-0.1-0.5c0-0.1,0.1-0.2,0.2-0.4v-0.1
		c0-0.1,0-0.1,0.1-0.1c-0.1-0.2-0.1-0.4-0.1-0.5s0-0.2,0.1-0.4v-0.1c0-0.1,0.1-0.1,0.1-0.3v-0.1c0.1,0,0.1,0,0.1-0.1h-0.4h-0.1
		c0,0.1,0.1,0.1,0.1,0.1l-0.1,0.5c0,0.1-0.1,0.3-0.1,0.4v0.1l-0.2,0.1c0,0.1-0.1,0.1-0.1,0.2c0,0.2,0.1,0.4,0.1,0.4
		c0,0.1-0.1,0.3-0.2,0.4v0.6C271.9,52.9,272.1,52.9,272.1,52.8z M272.9,48.6L272.9,48.6L272.9,48.6c0.1,0,0.1,0,0.1-0.1v-0.2h-0.1
		c0,0.1-0.1,0.2-0.1,0.4L272.9,48.6z M272.8,49L272.8,49L272.8,49L272.8,49z M273.1,47.8l0.1,0.1c0-0.4-0.3-0.4-0.3-0.4
		C273,47.7,273,47.8,273.1,47.8L273.1,47.8z M273.2,47c0,0.1,0,0.1,0.1,0.1V47c0.2-0.1,0.1-0.4,0.4-0.5l0.1-0.1h-0.4
		c0,0.1-0.1,0.3-0.3,0.4L273.2,47z M273.7,46.1c0,0.1,0.3-0.3,0.3-0.4c0-0.1,0-0.1-0.1-0.1v-0.1c0-0.1,0.1-0.3,0.3-0.4
		c0-0.1-0.2-0.1-0.3-0.1c-0.1,0-0.2,0.1-0.2,0.3v0.1c0,0.3-0.1,0.2-0.1,0.5l-0.1,0.3L273.7,46.1z M273.9,44.5h0.4
		c0.1-0.1,0.2-0.6,0.2-0.6l-0.3-0.1C273.9,44,274,44.2,273.9,44.5L273.9,44.5z M274.3,43.4L274.3,43.4L274.3,43.4
		c0.3,0,0.4,0,0.4-0.1s-0.1-0.1-0.1-0.1h-0.1C274.4,43.3,274.3,43.4,274.3,43.4z M292.6,16.4c-0.2-0.3-0.5-0.6-0.9-0.6l-0.5,0.3
		c0,0.1-0.2,0.2-0.6,0.4c-0.5,0-0.9,1.2-2.3,2.5v0.2c-0.1,0-0.6,0.6-0.6,0.6V20c-0.2,0.4-1,1.2-1.4,2.3c-0.6,1.5-0.9-0.1-2.7,4.9
		c-0.3-0.2-0.6,2.1-1.5,2.7v0.2c-0.1,0.3-0.1,0.9-0.4,1.2l-0.6,1.4l0.1,0.1c0,0.4-1.2,1.4-1.4,3.3c0,0.1,0.1,0.1,0.1,0.1
		s0,0.1-0.1,0.1v0.4l-0.2,0.6c-0.4,0-0.4,0.3-0.4,0.4c0.1,0.1,0.1,0.2,0.1,0.3c0,1.2-0.6,1.2-0.6,1.4v0.3c0,0.1,0,0.1,0.1,0.2
		c0.1,0-0.4,0.9-0.6,1.1c0,0.1,0.1,0.1,0.1,0.1H278c0,0,0.1,0,0.1,0.1c-0.3,0.4,0.1,0.6-0.6,0.9v0.2c0,0,0,0.1,0.1,0.1l-0.1,0.3
		c-0.2,0.1-0.3,0.1-0.3,0.4v1c-0.2,0.2-0.6,1.6-0.6,1.4c0,0.1,0.1,0.2,0.1,0.2c0,0.1-0.2,0.4-0.4,0.6c0.1,0,0.1,0.1,0.1,0.1
		c0,0.4-0.2,0.3-0.2,0.4c0,0,0.1,0.1,0.1,0.3c-0.2,0.2-0.4,0.6-0.4,0.9v0.2c0,0.1-0.1,0.3-0.2,0.4v0.1c0,0.1,0.1,0.1,0.1,0.2
		c0,0.2-0.1,0.4-0.3,0.7c0,0.1,0,0.1,0,0.1c0,0.5-0.3,0.4-0.3,1.2V51c0,0.1,0,0.2-0.1,0.2l-0.2,0.6c0.1,0,0.1,0.1,0.1,0.3
		c0,0,0,0.1-0.1,0.1l-0.1,0.4c0,0.4,0,0.5-0.4,0.6c0,0.1,0,0.1,0.4,0.2c-0.2,0,0,0.3-0.4,0.6v0.3c0,0.1-0.1,0.6-0.1,0.9v0.2
		c0.1,0.1,0.1,0.3,0.1,0.4V56c-0.1,0.3-0.1,0.5-0.1,0.6c0.1,0.1,0.1,0.3,0.1,0.4l0.4,0.1c0.1-0.2,1.2-1.8,2.2-2.7
		c-0.1,0-0.1-0.1-0.1-0.1c0-0.1,0.2-0.1,0.2-0.1v-0.1c0.2-0.1,0.2-0.2,0.5-0.6l0.9-1.1c0-0.4,0.6,0,1.4-2l1.2-1.5
		c0.5-1.2,1.1-1.6,1.1-1.9v0c0,0.1,0.3-0.9,0.9-1.5v-0.1c0.1-0.2,0.3-0.5,0.5-0.6l0.1-0.4c0.1-0.1,0.2-0.3,0.2-0.5l0.3-0.4
		c0-0.4,0.3-0.4,0.6-1.3l0.1-0.3c0-0.1,0.1-0.2,0.2-0.4c-0.1,0.1,1.2-1.5,1.2-1.9v-0.2c0-0.3,0.1-0.5,0.3-0.7v-0.4
		c-0.2,0.1,1.4-1.6,1.4-2.8c0-0.1-0.1-0.1-0.1-0.1l0.4-0.3c0.3-0.3,0.4-0.6,0.5-1.2l-0.1-0.1c0.1-0.8,0.5-0.9,0.5-1.3v-0.1
		c0,0,0.1-0.1,0.2-0.1v-0.5c0.3-0.1,0.4-0.5,0.4-0.6l0.1-0.2c0-0.1-0.1-0.1-0.1-0.1c0-0.1,0.1-0.1,0.2-0.1l0.3-0.6
		c0-0.1,0.1-0.1,0.1-0.1c0-0.1,0-0.2-0.1-0.4v-0.1c0.4-0.5,0.8-0.9,0.8-1.6c0-0.1-0.1-0.1-0.1-0.1c0-0.4,0.2-0.5,0.2-0.6v-0.1
		c0-0.2,0.1-0.9,0.4-1.1V26c0.1-0.1,0-0.8,0.1-1.1v-0.3c0.1-0.1,0.1-0.2,0.1-0.3v-0.1c0.1-0.1,0.1-0.1,0.1-0.1c0-0.1,0-0.1-0.1-0.2
		c0.1-0.1,0.3-0.6,0.3-0.7s0-0.2-0.1-0.2s0.4-0.8,0.4-1.9V21c0.1-0.4,0.2-0.5,0.2-0.6v-0.1c-0.1-0.1-0.1-0.2-0.1-0.3v-0.1
		c0.1-0.1,0.1-0.1,0.1-0.1c0-0.1,0-0.1-0.1-0.1c0.2-0.2,0.2-0.4,0.2-0.6v-0.5c0-0.1-0.1-0.1-0.1-0.3V18c0.1-0.1,0.1-0.1,0.1-0.2
		v-0.1c-0.4-0.6-0.3-0.9-0.5-1.2C292.5,16.5,292.6,16.4,292.6,16.4z M274.6,42.7L274.6,42.7c0.2-0.1,0.3-0.1,0.3-0.3v-0.1
		c0.2-0.1,0.2-0.5,0.3-0.6c0-0.1,0-0.1-0.1-0.2c-0.1,0-0.1,0-0.2,0.1v0.1c0,0.2-0.2,0.5-0.4,0.6C274.4,42.5,274.4,42.6,274.6,42.7
		L274.6,42.7z M275.2,41.2c0,0,0.1,0,0.1-0.1L275.2,41.2C275.1,41.2,275.1,41.2,275.2,41.2z M275.3,40.9c0-0.1,0-0.1,0.3-0.3
		l-0.3-0.1c0,0.1-0.1,0.1-0.1,0.3C275.2,40.8,275.2,40.9,275.3,40.9L275.3,40.9z M275.9,38h0.3c0.1,0,0.1,0,0.1-0.1l-0.1-0.1
		c0.5-0.4,0.4-1,0.6-1.2c0,0-0.1,0-0.4-0.1c-0.1,0-0.1,0.1-0.3,0.1l0.1,0.1c0-0.1-0.5,0.6-0.5,0.8v0.2
		C275.9,37.7,275.9,37.8,275.9,38L275.9,38z"/>
	<path class="st0" d="M317.3,50.7v0.2c-0.1,0.3-0.6,0.3-1.1,0.4c-0.3,0.2-0.6,0.5-1.2,0.6c-0.3,0-1.1,0.3-1.2,0.3
		c-0.4,0-0.6,0.1-0.9,0.2h-0.7c-0.2,0-0.4,0-0.5-0.1v0.1c0,0-0.1,0-0.1-0.1c-0.3,0.3-2,0.1-2.4,0.3h-3c-0.1-0.1-0.1,0-0.1,0
		c-0.3,0-0.5,0.1-0.6,0.1h-0.2c-0.1-0.1-0.9-0.4-0.9-0.5c-0.1,0-0.4,0.1-0.6,0.1c-0.1,0-0.1,0.1-0.3,0.1c-0.2,0.2-0.4,0.2-0.6,0.4
		h-0.1c0,0,0,0.1,0.1,0.1c0.2,0.4,1.3,0.4,1.4,0.9c0,0.1,0.1,0.2,0.1,0.3l0.3,0.4c0.1,0.1,0.2,0.4,0.2,0.7c0.3,0.1,0.1,0.4,0.3,0.6
		c0.2,0.1,0.1,0.4,0.2,0.6l0.1,0.1c-0.1,0.1-0.1,0.1-0.1,0.2c0,0.1,0,0.1,0.1,0.2c0,0.1,0,0.1,0,0.1c0,0.1,0,0.2,0,0.3v0.1
		c0,0.1-0.1,0.2-0.1,0.4c0.1,0.1,0.1,0.1,0.1,0.4v0.5c-0.1,0.1-0.1,0.1-0.1,0.1c-0.1,0.3-0.3,0.5-0.3,0.7v0.1c0,0.3-0.1,0.6-0.2,0.8
		c-0.1,0.1-0.1,0.1-0.1,0.4c0,0,0,0.1,0.1,0.1V61l-0.4,0.6c-0.1,0.2-0.2,0.3-0.2,0.5v0.2c0,0.1-0.1,0.3-0.2,0.4l-0.4,0.6
		c-0.1,0.2-0.4,0.3-0.4,0.6c0,0.1-0.1,0.1-0.2,0.3l-0.5,0.4v0.2c0,0,0.1,0.1,0.1,0.2l-0.3,0.1c-0.2,0.1-0.4,0.4-0.7,0.4
		c-0.1,0.1-0.3,0.2-0.3,0.4c-0.3,0.2-0.4,0.2-0.6,0.3c-0.1,0.1-0.4,0.1-0.6,0.3c-0.1,0.1-0.1,0.1-0.3,0.1s-0.2,0-0.2-0.1h-0.1
		c-0.1,0.1-0.5,0.1-0.6,0.1h-0.5c-0.3,0.1-0.4,0.1-0.6,0.1s-0.2,0-0.3-0.1c-0.1,0-0.2,0-0.4-0.1c-0.2-0.2-0.5-0.1-0.7-0.4
		c-0.2-0.1-0.4-0.2-0.6-0.2c-0.3,0-0.4-0.2-0.6-0.3c-0.1-0.2-0.1-0.3-0.4-0.3c-0.1,0-0.3-0.1-0.4-0.1c-0.1-0.2-0.3-0.4-0.4-0.6
		c-0.6-0.3-0.6-0.8-0.6-1.4c-0.1-0.1-0.1-0.2-0.1-0.3c0-0.4-0.1-0.6-0.1-0.9c0-0.2,0.2-0.3,0.2-0.4s-0.1-0.3-0.1-0.5
		c0-0.1,0-0.3,0-0.4c0-0.1,0-0.1,0-0.1c0-0.3,0.1-0.4,0.2-0.6v-0.6c0-0.1-0.1-0.1-0.1-0.2c0.4-0.7,0.8-1.6,1.1-2.4
		c0.1-0.1,0.4-0.1,0.4-0.1c0.2-0.1,0.4-0.3,0.5-0.4c0.1,0,0.1-0.1,0.1-0.3v-0.1c0-0.1,0-0.1,0.1-0.1c0.4-0.2,0.4-0.7,0.6-1.1
		c0.1-0.1,0.1-0.4,0.4-0.6c0-0.2,0.1-0.4,0.2-0.5c0.1-0.2,0.4-0.6,0.6-0.9c0-0.1,0.1-0.1,0.1-0.1c0.1-0.1,0.2-0.3,0.4-0.3
		c0.2-0.1,0.1-0.2,0.4-0.4L299,52c0.1-0.1,0.1-0.2,0.2-0.2c0.4-0.2,0.4-0.5,0.7-0.6c0.4-0.1,0.5-0.3,0.7-0.3h0.3
		c0.2-0.4,0.7-0.6,1-0.9h0.2c0.3,0,1,0.3,1.4,0.3h0.4c0.1,0,0.3,0.1,0.4,0.1c0.3,0.3,0.8,0.6,1,0.6h0.1c0.2-0.1,0.4-0.1,0.6-0.1
		c0.5,0.1,2.7,0.1,3.2,0.1h0.2c0.3,0,0.4,0.1,0.6,0.1s0.4,0,0.4-0.1c0.1,0,0.2,0.1,0.3,0.1c0.6,0,1.6-0.1,1.7-0.2h0.1
		c0.1,0,0.3-0.2,0.6-0.2c0.1,0,0.1,0,0.1,0.1c0.1-0.1,0.1-0.1,0.2-0.1s0.1,0,0.4-0.1l2.1-0.5h0.6C317.1,50.1,317.3,50.2,317.3,50.7z
		 M302.9,57.2C302.9,57.1,302.9,57.1,302.9,57.2c0-0.2,0-0.4,0-0.5c-0.3-0.3-0.1-0.5-0.3-0.6c-0.1-0.1-0.1-0.4-0.1-0.6
		c-0.1-0.4-0.2-0.8-0.4-1c-0.3-0.3-0.5-0.6-0.6-0.9c-0.1,0-0.1-0.1-0.2-0.1s-0.1,0.1-0.1,0.1c-0.3,0.3-0.4,0.5-0.7,0.6v0.2
		c-0.2,0.3-0.4,0.6-0.6,1.1c0,0.1,0,0.1-0.1,0.1c-0.3,0.4-0.6,0.6-0.6,0.9l-0.4,1.2c-0.1,0-0.2,0.1-0.3,0.3c0,0.2-0.1,0.4-0.4,0.6
		c0,0-0.2,0-0.2,0.1c0,0.4,0,0.5-0.1,0.8c-0.1,0.5-0.3,1-0.5,1.4l-0.1,0.1c0.1,0.2,0.1,0.4,0.1,0.4c0,0.2-0.1,0.6-0.1,0.8
		c0,0.1,0,0.4,0.1,0.6v0.6c-0.1,0.1-0.1,0.1-0.1,0.1c0.1,0.3,0.1,0.5,0.1,0.7c0,0.4,0.4,0.5,0.4,0.6v0.1V65c0,0.1,0.1,0.1,0.2,0.1
		c0,0,0.1,0.1,0.2,0.1c0.1,0.1,0.1,0.1,0.1,0.1c0.1,0,0.3-0.1,0.4-0.2l0.5-0.2c0-0.1,0.1-0.1,0.2-0.1c0.5-0.5,1-0.9,1.4-1.5
		c0.1-0.1,0.1-0.1,0.1-0.2c0.1-0.3,0.4-0.4,0.4-0.7l0.5-0.8c0-0.2,0.1-0.5,0.4-0.8l0.2-0.7c0.1-0.1,0.1-0.1,0.1-0.3V59
		c0-0.1,0.1-0.2,0.1-0.4l0.2-1v-0.4H302.9z"/>
	<path class="st0" d="M339.3,61.9c0,0,0,0.1-0.1,0.2c-0.1,0.3-0.4,0.4-0.6,0.6c-0.1,0.1-0.4,0.4-0.6,0.5l-0.5,0.4
		c0,0.1-0.1,0.1-0.1,0.4c-0.1,0.4-0.1,0.4-0.4,0.6l-0.9,0.6c-0.3,0.1-0.6,0.4-0.6,0.7c-0.1,0.1-0.1,0.1-0.1,0.2c0,0-0.1,0-0.1,0.1
		s0,0.1,0,0.1v0.1c0,0,0,0,0.1,0v0.3c-0.3,0.1-0.6,0.4-0.9,0.6c-0.4,0.1-0.6,0.4-1.1,0.6c-0.2,0.1-0.6,0.1-0.8,0.1
		c-0.1,0-0.1,0-0.3,0c-0.1-0.1-0.2-0.1-0.4-0.1l-1-0.1c-0.3-0.1-0.6-0.3-0.9-0.4c-0.1-0.1-0.4-0.1-0.4-0.3l-1.6-1.4l-0.2-0.3
		c-0.6-1-1.1-2.2-1.4-3.5c-0.2-0.4-0.2-0.8-0.3-1.2c-0.1-0.1-0.1-0.2-0.1-0.3s0-0.2,0-0.3c0-0.2,0-0.4,0-0.6c0-0.1,0-0.4,0-0.5
		s0-0.1,0-0.2c0-0.4-0.1-0.6-0.1-0.9l0.1-0.1c0,0-0.1,0-0.1-0.1c-0.1-0.1-0.1-0.1-0.3-0.1c0,0,0,0-0.1,0l-1.1,0.6
		c-0.1,0-0.1,0.1-0.2,0.2c-0.1,0.4-0.4,0.5-0.8,0.7v0.2c0,0,0,0.1-0.1,0.4c0,0,0,0.1-0.1,0.1c-0.4,0.2-0.4,0.6-0.7,0.9
		c-0.4,0.2-0.6,0.4-0.6,0.7c-0.1,0.1-0.1,0.1-0.3,0.1c-0.4,0.6-0.9,1.1-1.4,1.4l-0.7,0.5c-0.1,0.1-0.1,0.4-0.1,0.6
		c-0.2,0.4-0.6,0.6-0.6,0.9h-0.1c-0.4,0-0.5,0.3-0.5,0.6c0,0.1-0.1,0.2-0.2,0.3c-0.1,0-0.1,0.3-0.4,0.4c-0.2,0.4-0.4,0.9-0.9,1.2
		c-0.1,0.2-0.4,0.3-0.6,0.4c-0.6,0.2-1.3,0.9-1.9,1.4c0,0.1-0.1,0.1-0.1,0.1s-0.1,0-0.1-0.1c-0.1-0.1-0.1-0.2-0.3-0.2s-0.1,0-0.2,0
		c0,0.1-0.1,0-0.2,0s-0.2,0-0.3-0.1c-0.1-0.1-0.1-0.1-0.3-0.1c-0.2,0-0.5-0.2-0.6-0.6c-0.1,0-0.1-0.1-0.1-0.1s0,0,0.1-0.1
		c0-0.1-0.1-0.3-0.3-0.4c-0.3-0.1-0.3-0.2-0.3-0.4c-0.1-0.3-0.1-0.4-0.1-0.6c0,0-0.1-0.1-0.1-0.3c0.1-0.4,0.1-0.8,0.1-1.3
		c0-0.4,0.1-0.9,0.2-1.4c0.1-0.7,0.1-1.3,0.2-2c0.1-0.4,0.2-0.9,0.4-1.2l0.7-2.7l0.9-3l0.4-1.3c0.1-0.1,0.1-0.2,0.1-0.5
		c0-0.1,0.1-0.3,0.2-0.4c0.1-0.3,0.1-0.4,0.1-0.8c0.2-0.3,0.3-0.6,0.4-0.9c0-0.4,0.1-0.6,0.1-0.9c0.2-0.7,0.6-1.4,0.7-2.2
		c0.1-0.4,0.1-0.6,0.4-0.9c0.1-0.2,0.1-0.4,0.1-0.4c0.1,0,0.2,0.1,0.4,0.1h0.1c0.1-0.1,0.3-0.1,0.4-0.1c0.4,0,0.6,0.3,0.9,0.6
		c0.1,0.1,0.1,0.2,0.2,0.2c0.6,0.2,0.4,0.6,0.6,0.9c-0.1,0.4-0.1,0.9-0.3,1.2c-0.1,0.1-0.1,0.3-0.1,0.4s-0.1,0.4-0.1,0.4
		c-0.1,0.2-0.4,0.4-0.4,0.6c0,0.1,0,0.1,0,0.1c0,0.1,0.1,0.2,0.1,0.4s-0.1,0.3-0.1,0.4l0.1,0.1c0,0.1-0.1,0.2-0.2,0.3
		s-0.1,0.3-0.1,0.4c-0.2,0.2-0.3,0.5-0.5,0.9c-0.1,0-0.1,0-0.1,0.1s0.1,0.1,0.1,0.2c0,0,0.1,0,0.1,0.1s-0.1,0.1-0.1,0.3
		c-0.1,0-0.1,0.1-0.1,0.3c0,0.1,0.1,0.1,0.1,0.1c0,0.2-0.1,0.4-0.1,0.6c-0.1,0.5-0.1,0.6-0.3,0.9l-0.2,0.4c0,0.2-0.1,0.4-0.1,0.4
		c-0.1,0.1-0.1,0.2-0.1,0.3s0,0.1,0.1,0.1c0,0.1,0,0.1,0,0.1c0,0.1-0.1,0.2-0.1,0.4c-0.1,0.2-0.1,0.4-0.1,0.6c0,0.1-0.1,0.3-0.2,0.6
		l-0.3,1c-0.1,0.6-0.3,1.2-0.4,1.7l-0.2,1c-0.1,0.4-0.1,0.7-0.2,1.1V64l0.1,0.1c0.3-0.4,0.8-0.6,1-1l0.1-0.1
		c0.4-0.1,0.8-0.6,1.2-0.9l1.7-1.7c0.1,0,0.1-0.1,0.1-0.1c0.4-0.6,0.9-1.2,1.4-1.6c0.1-0.1,0.1-0.1,0.1-0.2c0.1-0.2,0.4-0.4,0.5-0.4
		l1-1.2c0.3-0.2,0.6-0.5,1.1-0.6c0.1-0.1,0.3-0.1,0.3-0.4c0-0.1,0-0.1,0.2-0.1c0.4-0.4,0.9-0.9,1.6-1c0.1,0,0.1-0.1,0.2-0.1
		s0.2,0.1,0.3,0.1c0.1,0,0.1,0.1,0.1,0.1c0.1,0,0.1,0,0.1,0c0.4,0,0.5,0.1,0.6,0.4c0.1,0.2,0.3,0.4,0.4,0.4s0.3,0,0.4,0.1
		c0.2,0.2,0.4,0.4,0.6,0.6c0.3,0.1,0.4,0.4,0.4,0.7c0,0.1,0,0.1,0,0.1c0,0.2,0.1,0.6,0.1,0.8c0.1,0.1,0.1,0.4,0.1,0.6
		c-0.1,0.1-0.1,0.2-0.1,0.3s0,0.1,0.1,0.2c0.1,0.1,0.1,0.3,0.1,0.4s-0.1,0.3-0.1,0.4c0,0.1,0.1,0.2,0.3,0.3h0.1v-0.6l0.1-0.1
		c0.1,0,0.1,0,0.1,0.1c0.3,0.6,0.4,1.2,0.4,1.9c-0.1,0.2-0.1,0.5-0.1,0.8c0,0.2,0.1,0.4,0.1,0.5v0.1c0,0.1,0,0.1,0,0.2
		c0,1,0.3,1.9,0.8,2.8c0.1,0.2,0.4,0.3,0.7,0.3c0.5,0,1.1,0,1.4-0.2c0.4-0.1,0.8-0.2,1.2-0.4c0.1-0.1,0.3-0.3,0.6-0.3
		c0.2-0.1,0.4-0.2,0.6-0.3c0-0.1,0.1-0.1,0.1-0.1c0.3-0.1,0.6-0.4,1-0.7c0.3-0.1,0.4-0.3,0.6-0.4s0.4-0.2,0.6-0.3
		c0.1-0.1,0.2-0.3,0.4-0.4l0.5-0.4c0.3-0.1,0.6-0.3,0.6-0.7C339.1,61.9,339.2,61.8,339.3,61.9C339.2,61.8,339.3,61.8,339.3,61.9z"/>
	<path class="st0" d="M351.6,56.8l0.1,0.2l-0.1,0.1l-0.6,1.1v0.3l-0.1,0.1l-0.1,0.6l-0.4,1.2c-0.1,0.1-0.3,0.3-0.3,0.4l0.1,0.3
		c-0.1,0-0.1,0.1-0.1,0.1v0.2c-0.1,0.1-0.1,0.2-0.1,0.4l-0.2,0.1v0.3c0,0.1,0.1,0.3,0.1,0.4c0,0.1-0.2,0.6-0.3,0.6l0.1,1.2
		c0,0.2,0,0.4,0.1,0.6l-0.1,0.1c0.1,0.1,0.2,0.2,0.2,0.4v0.1c0-0.1,0-0.1,0-0.1c0.1,0,0.4,1,1.2,1.1h0.1c0.1,0.1,0.1,0.1,0.1,0.1
		h0.5c0.1,0,0.1-0.4,0.2-0.5l0.3-0.1c0.1,0,0.3-0.1,0.3-0.1h0.1c0,0,0-0.1,0.1-0.1l0.1,0.1v0c0-0.1,0-0.1,0.1-0.1h0.1
		c0,0.1,0,0.1,0.1,0.1c0,0,0.1,0,0.1-0.1h0.1c0.1-0.1,0.1-0.1,0.2-0.1h0.2c0.1-0.1,0.3-0.1,0.5-0.3l0.6-0.4c0.2,0,0.3-0.1,0.4-0.3
		l0.9-0.5c0.3-0.4,0.4-0.3,0.7-0.7l0.2-0.1c0.1,0,0.3-0.2,0.4-0.2l0.6-0.6c0,0,0.1-0.2,0.5-0.4v0.1c0,0,1-0.9,1-1l0.2-0.1
		c0.1,0,0.1,0,0.1-0.1l0.1-0.3l0.9-0.8c-0.1,0-0.1,0-0.1,0s0.6-0.1,0.9-0.6h0.1c0,0,0.1,0,0.1-0.1v-0.2c0.1,0,0.2-0.2,0.3-0.3h0.2
		v0.2l0.1-0.1c0.1-0.1,0.3-0.1,0.3-0.4c0.1,0,0.2,0.1,0.2,0.1c0,0.1-0.1,0.2-0.2,0.3l-0.1,0.1c-0.1,0-0.2,0.1-0.2,0.1v0.2l-0.5,0.2
		l0.1,0.1l-0.1,0.1l-0.2,0.2c-0.2,0.1-0.4,0.2-0.5,0.3l-0.4,0.3l0.1,0.2c0.1-0.2,0.1-0.3,0.1-0.3s0.1,0.1,0.2,0.1s0.6-0.2,1.8-1.2
		l-0.2,0.3c-0.1,0-0.1,0.1-0.1,0.2h0.1l-0.4,0.4l-0.5,0.4c0,0.1,0.1,0.1,0.1,0.3l0.1,0.1c-0.1,0.1-0.3,0.1-0.4,0.2l-0.1,0.1
		c-0.1,0-0.2,0-0.4-0.1c-0.1,0-0.1,0.1-0.1,0.1h-0.1c-0.1,0-0.1,0-0.1,0.1h-0.1c-0.1,0.3-0.5,0.8-0.8,0.9l-0.1,0.1
		c0,0.1,0.1,0.1,0.3,0.2c0,0,0.1,0,0.1-0.1h0.1c0,0.1-0.4,0.4-0.6,0.6l-0.4,0.4c-0.2,0.6-0.4,0.4-1,0.9l-0.1,0.1
		c-0.1,0-0.2,0.1-0.4,0.1h0.1c0,0.1-1.1,1.2-1.9,1.2v0.2c0,0.1,0,0.1-0.1,0.1h-0.2c-0.1,0.2-2.7,1.2-2.9,1.3h-0.5
		c-0.1,0.1-1.9,0.4-2,0.4c-1.5,0-2.3-1.4-3-1.6c0,0,0,0,0-0.1c0-0.4-1.8-1.4-1.8-3.2c0-0.1,0.1-0.2,0.1-0.4
		c-0.1-0.2-0.1-0.4-0.1-0.5s0-0.2,0.1-0.2v-0.6l-0.1,0.1c-0.6,0-0.4,0.5-0.8,0.9L344,63c0,0.1,0,0.1-0.1,0.1h-0.1c0,0.1,0,0.1,0,0.1
		c0-0.1,0.1,0.7-2.7,2.7c0,0,0,0,0.1,0l-0.1,0.1c-0.5,0-1.4,0.9-1.6,1.1c0,0.1,0,0.1-0.1,0.1c-0.7,0-3.4-0.4-3.4-2
		c0-0.1,0-0.4,0.1-0.5c-0.1-0.4-0.1-0.9-0.2-1.6c0.1-0.2,0.3-0.4,0.3-0.6c0-0.1-0.1-0.1-0.1-0.2c0.3-0.5,0.5-1.1,0.5-1.7
		c0,0.1,0,0.1,0,0.1c0.8,0,0.6-3.6,1.8-3.9h0.1c0-0.1,0.1-1.3,1.7-3l0.4-0.6c-0.1,0-0.3,0-0.3,0c0-0.1,1.3-0.4,1.8-2.1l0.4-0.2
		c0,0,0.9-0.8,1-0.9h0.1c0,0,1.6-1.3,3-1.3c0.1,0,1,0,1.7,0.4c0.3,0.1,2.2,0.9,2.9,0.9c0.2,0,0.4-0.1,0.5-0.1c0.2,0,0.4,0.1,0.4,0.1
		v0.4l-0.1,0.2h0.1l0.1,0.3l0.1,0.2l0.3,0.3l-0.1,0.9v0.5l-0.2,0.5C352.4,54.5,352,55.7,351.6,56.8z M349.7,53.4
		C349.5,53.4,349.6,53.2,349.7,53.4C349.6,53.3,349.6,53.3,349.7,53.4c0-0.1,0.1-0.1,0.2-0.2V53c0-0.5,0,0,0.4-0.6v-0.1
		c0-0.9-1.2-0.9-1.9-0.9c-0.5,0-1.5,0.9-2.1,0.9h-0.1c-0.1,0.1-1.4,1.4-1.4,1.4l-0.1,0.1c-0.1,0-0.4,0.1-0.5,0.2l-0.1,0.2
		c0.1,0,0.1,0,0.1,0c-0.2,0.2,0,1.1-1,1.1v0.1c0.2,0.1,0.3,0.1,0.3,0.1c0,0.1-0.6,0.3-0.8,0.5c0.1,0.1,0.1,0.2,0.1,0.4
		c0,0.1-0.5,0.9-0.8,1l-0.2,0.4c-0.1,0.1-0.4,0.9-0.4,1.1v0.2c0,0.1,0,0.1,0,0.2l-0.3,0.3c-0.1,0-0.2,0.1-0.2,0.2
		c0,0.1,0.1,0.1,0.1,0.2c0,0.4-0.5,0.9-0.5,0.9c0,0.1,0.1,0.1,0.1,0.2c0,0.1-0.2,0.3-0.4,0.3c0.1,0.1,0.2,0.5,0.2,0.6
		c-0.1,0-0.3,0.1-0.3,0.1c0,0.1,0.1,0.2,0.1,0.3c0,0.4-0.3,0.8-0.3,1.2c0,0.1,0,0.3,0.1,0.4v0.1c0,0.1,0,0.1,0.1,0.1
		c0.4-0.1,0.8-0.1,0.9-0.4l0.5-0.2c0.9-0.6,0.9-0.8,1.5-1.2l0.6-0.6c0,0,1.1-1.2,1.8-1.9c0.1,0,1.5-2.7,2.3-2.7
		c-0.1-0.1-0.1-0.1-0.3-0.2c0.9-0.6,1.4-2.4,1.6-2.4C349,54.5,349.4,53.6,349.7,53.4z M344.6,61.8c0,0.1,0.1,0.1,0.2,0.1
		s0.1-0.2,0.2-0.4h-0.2C344.8,61.6,344.6,61.8,344.6,61.8z M345.4,61l-0.1,0.1c0.1,0,0.1,0.1,0.1,0.1h0.1V61H345.4z M346.8,59.4
		c-0.1,0-0.1,0.1-0.1,0.1l-0.1,0.1c-0.3,0.5-0.7,0.6-0.7,1c0,0,0.3-0.1,0.4-0.1v-0.1C346.6,60.2,346.9,59.6,346.8,59.4L346.8,59.4z
		 M347.1,59.1c0-0.1,0-0.2,0.1-0.3c-0.1,0.1-0.4,0.1-0.4,0.2C346.9,59,347,59.1,347.1,59.1z M347.2,58.7l0.1-0.1l-0.1-0.1
		C347.3,58.6,347.3,58.6,347.2,58.7z M349.1,57.8c0,0-1,0.8-1,1.9l-0.1,0.5c-0.1,0-0.1,0.1-0.1,0.3v0.6c-0.1,0-0.1,0.2-0.1,0.4
		l-0.1,0.2c0.1,0.1,0.1,0.2,0.1,0.3c0,0,0,0.1-0.1,0.1l-0.1,0.2v0.8c0.5,0,0.2-0.8,0.4-0.8v-0.4c0-0.5,0.4-1.2,0.4-1.6v-0.1
		c0.1-0.4,0.5-1.1,0.5-1.4v-0.1c0.1,0,0.1-0.1,0.1-0.1l0.1-0.4L349.1,57.8z M349.5,57.2c0,0,0.6-0.5,0.6-1.2v-0.1
		c0-0.2,0.1-0.3,0.1-0.4v-0.1c0-0.1,0.4-0.6,0.6-0.6v-0.1c0-0.4,0.5-1.2,0.4-1.2v-0.1l-1.1,1.7l-0.6,1.4l-0.1,0.6v0.1H349.5z
		 M351.5,53l-0.1,0.2h0.2L351.5,53C351.5,53.1,351.5,53,351.5,53z M359,63.9h-0.1c-0.1,0.1-0.2,0.1-0.4,0.1v0.1
		c0.1,0.1,0.1,0.1,0.2,0.1h0.3V63.9z M359.8,63.5c0-0.1-0.1-0.1-0.1-0.2h-0.2l0.1,0.1c0,0.1-0.1,0.1-0.1,0.1l0.1,0.1
		c0,0.1,0.1,0.1,0.1,0.1L359.8,63.5C359.8,63.7,359.8,63.6,359.8,63.5L359.8,63.5z M360.5,62.8L360.5,62.8c-0.1,0-0.1-0.1-0.1-0.1
		l-0.6,0.5l0.1,0.1l0.6-0.3C360.4,63,360.4,63,360.5,62.8z M360.9,61.2c0.1,0,0.1-0.1,0.1-0.2h-0.1c0,0.4-0.4,0.2-0.4,0.3v0.1
		L360.9,61.2z M361,61c0.1,0,0.1-0.1,0.1-0.1C361,60.9,361,61,361,61L361,61z M362.1,61.3L362.1,61.3
		C362,61.3,362.1,61.3,362.1,61.3z M364.8,57.7l0.7-0.4l0.4-0.7v0.9c0,0-1,0.4-1,0.5c0,0.3-1.2,1.7-1.3,1.7c0,0,0-0.5-0.1-0.5
		C363.4,58.6,364.8,58.3,364.8,57.7z M363.5,58.6L363.5,58.6L363.5,58.6C363.5,58.7,363.5,58.6,363.5,58.6L363.5,58.6
		C363.4,58.6,363.4,58.6,363.5,58.6z M363.9,58.2L363.9,58.2c-0.1,0.4-0.3,0.4-0.3,0.4l0.1-0.6h0.2L363.9,58.2L363.9,58.2z
		 M364.5,57.5c0,0.3-0.2,0.2-0.4,0.4l-0.1-0.2l0.2-0.1v-0.1C364.4,57.3,364.4,57.3,364.5,57.5C364.5,57.4,364.5,57.5,364.5,57.5z
		 M365.4,56.4C365.4,56.5,365.4,56.5,365.4,56.4l0.1,0.1c0,0.1-0.2,0.2-0.3,0.3H365v0.3h-0.1c0,0-0.1,0.1-0.4,0.1v-0.1
		c-0.1,0-0.1-0.1-0.1-0.1l1-0.8C365.4,56.3,365.4,56.4,365.4,56.4z M365.2,58.6L365.2,58.6l-0.2,0.1L365.2,58.6z M365.7,56.3
		l-0.3-0.1l0.2-0.2c0,0,0.1,0,0.1,0.1L365.7,56.3L365.7,56.3z M366,56c-0.1,0-0.1,0-0.1-0.1v-0.1c0,0,0.3-0.3,0.4-0.3
		c0.1,0.1,0.2,0.1,0.2,0.1C366.3,55.6,366.1,56,366,56z M366.8,56.8c0,0.1-0.3,0.2-0.4,0.2v-0.1l-0.4-0.2c0.1-0.1,0.1-0.4,0.1-0.4
		l0.2,0.4c0.1,0,0.1,0,0.1,0.1l0.1-0.1C366.7,56.5,366.8,56.7,366.8,56.8z"/>
</g>
</svg>
